<svg width="184" height="67" viewBox="0 0 184 67" fill="none" xmlns="http://www.w3.org/2000/svg">
<path d="M0.2 0.0799952H34.36V4.08C33.56 2.32 32.12 0.719996 27.96 0.719996H13.4C10.6 0.799995 8.76 1.92 8.76 6.08V35.68C9.4 34.08 10.68 32.8 12.28 31.84C14.68 30.24 17.96 29.28 21.16 28.32C22.92 27.68 24.76 27.12 26.36 26.4C27.64 25.92 28.84 25.28 29.88 24.56C30.28 24.32 30.6 24 31 23.68C33.48 21.28 32.76 18.08 31 17.28H33.72H34.36C34.36 18.8 34.04 20.16 33.56 21.36C32.76 22.88 31.64 24.08 30.2 25.12C27.8 26.8 24.52 27.92 21.32 28.88C18.12 29.92 14.92 30.88 12.6 32.4C11 33.36 9.72 34.64 9.16 36.32C8.76 37.52 8.76 39.04 8.76 40.4V55.36H27.96C32.12 55.36 33.56 53.76 34.36 52V56L0.2 56.08C1.88 55.2 3.56 53.76 3.56 49.6V6.48C3.56 2.32 1.88 0.879999 0.2 0.0799952ZM31.16 23.52L31 23.68C31.08 23.6 31.08 23.6 31.16 23.52ZM38.325 19.44H49.125C47.365 20.24 46.805 22.56 47.845 25.84L57.445 54.96L66.965 25.84C68.085 22.56 68.645 20.24 66.885 19.44H71.845C70.085 20.24 69.045 21.6 67.685 25.84C64.405 35.92 61.045 46 57.765 56H52.325L42.405 25.84C40.965 21.6 40.005 20.24 38.325 19.44ZM78.0194 22.8C80.8994 20.88 84.0194 19.36 89.0594 19.36C93.5394 19.36 98.7394 20.56 101.219 24.08C103.379 27.28 103.219 31.36 101.139 34.4C100.179 35.76 98.8994 36.72 97.6194 37.36C96.7394 37.84 95.6994 38.32 94.6594 38.72C94.3394 38.8 93.9394 38.96 93.6194 39.12C92.2594 39.52 90.8194 39.92 89.2994 40.32C87.8594 40.72 86.4194 41.12 85.0594 41.52C83.5394 42 82.3394 42.56 81.2194 43.12C80.7394 43.36 80.2594 43.6 79.8594 43.92C79.2194 44.32 78.6594 44.88 78.1794 45.36C77.9394 45.76 77.6994 46.08 77.4594 46.4C78.0994 48.16 78.8994 49.6 79.9394 50.88C80.9794 52.24 82.3394 53.28 83.6994 54.08C84.5794 54.48 85.3794 54.8 86.2594 54.96C86.9794 55.12 87.6994 55.2 88.3394 55.28C92.1794 55.36 95.2994 54.24 97.5394 52.72C97.8594 52.48 98.1794 52.24 98.4194 52C99.6194 51.04 100.499 49.92 101.219 48.64C102.179 46.64 102.099 45.04 102.099 44.8V44.72H102.739V44.8C102.739 45.04 102.819 46.8 101.779 48.88C101.059 50.32 100.099 51.52 98.8994 52.56C98.5794 52.8 98.2594 53.04 97.9394 53.28C95.5394 54.96 92.3394 56 88.3394 56.08C87.6194 56.16 86.8994 56.16 86.0994 56.08C85.1394 56 84.1794 55.84 83.1394 55.6C81.4594 55.2 79.5394 54.48 77.7794 53.28C76.0994 52 74.4994 50.4 73.2194 48.16C72.0194 45.84 71.2194 43.12 71.0594 40.16C70.8194 35.84 71.5394 32.24 72.8194 29.28C74.1794 26.24 76.1794 24.24 78.0194 22.8ZM97.8594 28.8C97.8594 22.96 92.5794 18.96 86.7394 20.32C83.9394 21.04 81.2194 23.04 79.8594 24.8C78.6594 26.32 77.6194 28.24 76.8994 30.8C76.3394 33.2 76.0194 36.16 76.2594 39.84C76.4194 42.08 76.7394 44 77.2994 45.68C77.4594 45.52 77.6194 45.28 77.7794 45.04C78.2594 44.4 78.8194 43.92 79.4594 43.36C79.8594 43.04 80.3394 42.8 80.8194 42.48C81.9394 41.76 83.2194 41.12 84.6594 40.48C86.0194 39.92 87.3794 39.36 88.8194 38.8C90.2594 38.24 91.5394 37.68 92.7394 37.04C93.0594 36.88 93.2994 36.72 93.6194 36.56C94.4994 36 95.1394 35.36 95.6994 34.8C97.0594 33.36 97.9394 31.2 97.8594 28.8ZM126.619 19.28C127.659 19.28 128.859 19.36 130.219 19.76C131.739 20.16 133.259 20.8 134.699 21.92C138.299 24.72 139.659 28.32 139.659 33.92V49.6C139.659 53.76 141.259 55.2 143.019 56.08H134.459V33.68C134.459 27.2 132.539 20.4 125.099 20.4C124.139 20.4 122.779 20.64 121.339 21.28C120.059 21.92 118.859 22.8 117.819 23.92C116.779 25.04 115.979 26.4 115.499 27.68C114.779 29.44 114.619 31.44 114.619 33.52V49.6C114.619 53.76 116.219 55.2 117.979 56H106.059C107.739 55.2 109.419 53.76 109.419 49.6V34.24C109.419 26.32 109.179 24.72 107.419 23.92C110.219 23.92 113.819 21.44 114.619 19.44V25.28V28.08C114.619 27.92 114.699 27.68 114.779 27.44C115.339 26.08 116.139 24.64 117.179 23.36C118.299 22.08 119.579 21.12 120.939 20.48C122.539 19.68 123.979 19.44 125.099 19.36C125.259 19.36 125.499 19.36 125.659 19.36C125.979 19.36 126.299 19.28 126.619 19.28ZM151.413 2.56V19.36H156.613V20H151.413V59.92C151.413 64 153.013 65.44 154.773 66.32H152.693C149.253 66.32 146.213 63.84 146.213 57.68V20H143.013V19.36H146.213V17.36C146.213 9.36 145.973 7.84 144.213 7.04C147.013 7.04 150.613 4.56 151.413 2.56ZM168.426 19.52C169.866 19.36 171.146 19.44 172.506 19.68C174.906 20 176.986 20.64 179.066 22.32C181.866 24.64 183.306 29.04 181.386 31.52C180.746 32.32 179.706 32.64 178.666 32.32C177.546 32 176.826 31.04 176.826 29.92C176.906 28.16 178.426 26.64 177.146 23.92C176.746 23.04 175.866 22.16 174.746 21.52C172.186 20 169.146 19.6 166.106 20.56C162.826 21.68 160.746 25.12 162.906 28.08C164.586 30.32 168.186 32.24 171.866 33.68C175.786 35.28 180.666 37.68 182.426 41.12C182.746 41.76 182.986 42.4 183.146 43.12C183.626 45.6 183.386 48.08 182.026 50.16C179.546 53.84 174.506 56.08 169.386 56.08C167.706 56.08 165.946 55.84 164.026 55.2C162.506 54.56 161.146 53.76 160.106 52.64C158.826 51.44 158.106 50.08 157.706 48.64C157.306 47.12 157.386 45.76 157.546 44.88C157.626 44.16 157.786 43.52 157.866 43.28L158.506 43.52C158.426 43.68 158.266 44.32 158.186 45.04C158.026 45.84 157.946 47.04 158.346 48.48C158.666 49.76 159.386 51.04 160.506 52.16C161.546 53.2 162.906 53.92 164.346 54.48C167.306 55.52 170.186 55.36 173.226 54.32C174.666 53.76 176.026 53.04 177.066 52.08C179.706 49.92 180.186 46.16 178.106 43.92C176.586 42.24 173.946 40.4 169.946 38.64C167.466 37.52 164.666 36.32 162.346 34.56C158.426 31.6 158.106 27.6 159.866 24.24C160.506 23.2 161.306 22.32 162.346 21.52C163.386 20.8 164.586 20.24 165.946 19.92C166.746 19.68 167.546 19.6 168.426 19.52Z" fill="url(#paint0_linear_302_142)"/>
<defs>
<linearGradient id="paint0_linear_302_142" x1="191" y1="28" x2="5.04988" y2="31.046" gradientUnits="userSpaceOnUse">
<stop stop-color="#F3A214"/>
<stop offset="1" stop-color="#E74101"/>
</linearGradient>
</defs>
</svg>
