<svg width="455" height="76" viewBox="0 0 455 76" fill="none" xmlns="http://www.w3.org/2000/svg">
<path d="M0.2 0.0799952H12.12C10.36 0.879999 8.76 2.32 8.76 6.48V49.6C8.76 53.76 10.36 55.2 12.12 56.08H0.2C1.88 55.2 3.56 53.76 3.56 49.6V6.48C3.56 2.32 1.88 0.879999 0.2 0.0799952ZM35.0569 19.28C36.0969 19.28 37.2969 19.36 38.6569 19.76C40.1769 20.16 41.6969 20.8 43.1369 21.92C45.6169 23.84 47.0569 26.16 47.6969 29.28C47.9369 28.64 48.0969 28.08 48.3369 27.44C48.8169 26.08 49.6169 24.64 50.7369 23.36C51.7769 22.08 53.0569 21.12 54.4169 20.48C56.0169 19.68 57.5369 19.44 58.5769 19.36C60.3369 19.28 61.9369 19.28 63.7769 19.76C65.2169 20.16 66.7369 20.8 68.1769 21.92C71.7769 24.72 73.2169 28.32 73.2169 33.92V49.6C73.2169 53.76 74.8169 55.2 76.5769 56.08H73.2169H68.0169V33.68C68.0169 27.2 66.0169 20.4 58.6569 20.4C57.6969 20.4 56.3369 20.64 54.8169 21.28C53.6169 21.92 52.4169 22.8 51.2969 23.92C50.2569 25.04 49.5369 26.4 48.9769 27.68C48.2569 29.52 48.0969 31.76 48.0969 33.92V49.6C48.0969 53.76 49.6969 55.2 51.4569 56H39.5369C41.2969 55.2 42.8969 53.76 42.8969 49.6V33.68C42.8969 27.2 40.9769 20.4 33.5369 20.4C32.5769 20.4 31.2169 20.64 29.7769 21.28C28.4969 21.92 27.2969 22.8 26.2569 23.92C25.2169 25.04 24.4169 26.4 23.9369 27.68C23.1369 29.76 22.9769 31.92 23.0569 34.4V49.6C23.0569 53.76 24.6569 55.2 26.4169 56H14.4969C16.1769 55.2 17.8569 53.76 17.8569 49.6V34.24C17.8569 26.32 17.6169 24.72 15.8569 23.92C18.6569 23.92 22.2569 21.44 23.0569 19.44V25.28V28.08C23.0569 27.92 23.1369 27.68 23.2169 27.44C23.7769 26.08 24.5769 24.64 25.6169 23.36C26.7369 22.08 28.0169 21.12 29.3769 20.48C30.9769 19.68 32.4169 19.44 33.5369 19.36C33.6969 19.36 33.9369 19.36 34.0969 19.36C34.4169 19.36 34.7369 19.28 35.0569 19.28ZM98.8481 19.44C108.928 19.44 117.168 27.6 117.168 37.76C117.168 47.84 108.928 56 98.8481 56C93.5681 56 88.5281 53.76 85.0881 49.76V69.04C85.0881 73.2 86.6881 74.64 88.4481 75.44H76.5281C78.2081 74.64 79.8881 73.2 79.8881 69.04V34.24C79.8881 26.32 79.6481 24.72 77.8881 23.92C80.6881 23.92 84.2881 21.44 85.0881 19.44V25.68C88.5281 21.76 93.5681 19.44 98.8481 19.44ZM96.1281 20.64C94.8481 20.64 93.6481 20.88 92.4481 21.28C85.7281 23.92 83.0881 33.44 86.6081 42.48C90.2081 51.6 98.5281 56.8 105.248 54.16C111.968 51.6 114.608 42.08 111.088 32.96C108.208 25.68 102.128 20.64 96.1281 20.64ZM122.978 31.92C122.338 29.84 123.138 26.32 125.858 23.36C128.338 20.8 131.618 19.44 135.698 19.44C140.018 19.44 145.218 21.12 147.458 25.84C148.338 27.76 148.658 30.32 148.658 32.88V49.6C148.658 53.76 150.258 55.2 152.018 56.08H148.658H143.457V50C143.378 50.16 143.298 50.32 143.218 50.56C142.738 51.6 141.938 52.56 140.978 53.44C139.938 54.24 138.818 54.88 137.698 55.36C136.978 55.68 136.258 55.84 135.698 56C135.058 56.16 134.498 56.32 133.938 56.4C132.578 56.64 131.218 56.72 130.018 56.64C129.618 56.64 129.298 56.64 128.978 56.56C128.018 56.48 127.058 56.24 126.098 55.92C122.898 54.72 121.138 52.24 121.138 48.64C121.058 47.04 121.458 45.6 122.178 44.16C122.178 44.16 122.178 44.08 122.258 44.08C122.898 42.8 123.938 41.68 125.298 40.8C126.418 40.08 127.698 39.52 129.058 38.96C129.378 38.8 129.698 38.72 130.018 38.56C130.978 38.24 131.778 37.92 133.058 37.44C134.178 37.04 135.698 36.56 136.898 36.08C138.178 35.6 139.298 35.04 140.258 34.48C140.818 34.16 141.218 33.84 141.618 33.52C142.018 33.2 142.338 32.8 142.578 32.48C142.898 32 143.058 31.6 143.218 31.2C143.378 30.72 143.378 30.32 143.457 30.08C143.457 29.2 143.378 28.08 143.218 27.28C143.058 26.08 142.658 24.96 142.098 23.92C141.458 22.88 140.658 22 139.618 21.28C138.338 20.48 136.978 20.08 135.698 20.08C132.818 20.08 128.978 21.36 128.018 23.76C127.138 26 127.538 27.28 127.778 28.96C127.938 30 128.178 31.28 127.698 32.24C127.218 33.12 126.338 33.68 125.378 33.68C124.258 33.68 123.218 32.96 122.978 31.92ZM143.457 32.16C143.378 32.32 143.218 32.56 143.058 32.8C142.818 33.2 142.418 33.6 141.938 34C141.538 34.32 141.057 34.64 140.578 34.96C139.538 35.6 138.418 36.08 137.138 36.64C135.858 37.2 134.498 37.68 133.298 38.16C132.178 38.64 131.298 39.12 130.497 39.6C130.178 39.76 129.938 39.92 129.698 40.08C128.498 40.88 127.618 41.76 126.978 42.64C126.258 43.68 126.018 44.64 125.778 45.52C125.778 45.52 125.778 45.52 125.778 45.6C125.217 48.24 125.778 50.8 127.698 53.04C128.258 53.52 128.818 53.92 129.538 54.24C129.858 54.32 130.098 54.48 130.418 54.56C131.378 54.88 132.578 55.12 133.858 55.12C134.338 55.12 134.898 55.04 135.458 54.96C136.018 54.88 136.658 54.72 137.378 54.48C138.418 54.16 139.538 53.6 140.497 52.88C141.458 52.08 142.178 51.2 142.658 50.24C143.618 48.32 143.538 45.52 143.457 42.96V32.16ZM170.581 19.44C171.941 19.36 172.901 19.28 174.501 19.52C175.381 19.6 176.261 19.76 177.141 20C178.581 20.48 180.021 21.2 181.141 22.16C182.421 23.2 183.381 24.48 183.941 25.92C184.661 28 184.501 29.92 184.181 31.2C183.621 32.56 182.181 33.2 180.821 32.72C179.781 32.32 179.141 31.36 179.141 30.32C179.221 28.72 179.941 27.52 179.941 26.08C179.941 23.84 178.181 21.12 174.421 20.24C173.221 20 171.941 19.92 170.661 20.16C169.701 20.4 168.581 20.72 167.541 21.28C165.861 22.16 164.341 23.36 163.061 24.96C161.781 26.64 160.741 28.56 160.181 30.96C159.541 33.36 159.301 36.32 159.621 39.92C159.621 40.32 159.701 40.64 159.701 41.04C159.941 42.96 160.341 44.64 160.901 46.16C161.541 47.84 162.421 49.36 163.461 50.64C164.581 52 165.861 53.04 167.221 53.84C169.861 55.2 172.341 55.52 175.301 55.04C176.181 54.88 177.141 54.56 178.101 54.16C179.301 53.68 180.421 53.04 181.541 52.24C182.901 51.12 183.781 49.92 184.421 48.8C184.501 48.64 184.581 48.56 184.661 48.4C185.301 46.96 185.381 45.76 185.461 45.04C185.461 44.96 185.461 44.8 185.461 44.72H186.101C186.101 44.8 186.101 44.96 186.101 45.12C186.021 45.84 185.941 47.12 185.221 48.64C185.141 48.8 185.061 48.96 184.981 49.12C184.341 50.32 183.381 51.6 181.941 52.72C180.821 53.6 179.541 54.32 178.421 54.8C167.541 59.12 155.781 53.44 154.501 41.68C154.421 41.2 154.341 40.72 154.341 40.24C154.101 36 154.741 32.48 156.021 29.52C157.301 26.64 159.061 24.48 161.061 22.96C163.061 21.44 165.141 20.56 167.141 20.08C168.341 19.76 169.541 19.52 170.581 19.44ZM196.881 2.56V19.36H202.081V20H196.881V59.92C196.881 64 198.481 65.44 200.241 66.32H198.161C194.721 66.32 191.681 63.84 191.681 57.68V20H188.481V19.36H191.681V17.36C191.681 9.36 191.441 7.84 189.681 7.04C192.481 7.04 196.081 4.56 196.881 2.56ZM242.737 19.44C252.897 19.44 261.057 27.6 261.057 37.76C261.057 47.84 252.897 56 242.737 56C232.657 56 224.497 47.84 224.497 37.76C224.497 27.6 232.657 19.44 242.737 19.44ZM240.017 20.64C238.817 20.64 237.537 20.8 236.337 21.28C229.617 23.92 227.057 33.44 230.577 42.48C234.097 51.6 242.417 56.8 249.137 54.16C255.857 51.6 258.497 42.08 254.977 32.96C252.097 25.52 245.857 20.64 240.017 20.64ZM278.521 0.159999C283.081 0.159999 286.521 2.16 288.281 6.64C289.161 8.64 289.001 10.64 288.601 11.92C288.121 13.28 286.521 13.92 285.241 13.44C284.201 13.04 283.721 12 283.561 11.04C283.401 9.6 284.841 8.72 284.681 6C284.441 2.88 282.361 0.879999 278.601 0.879999C272.041 0.879999 272.041 9.84 272.041 17.12V19.36H277.241V20H272.041V49.6C272.041 53.76 273.641 55.2 275.401 56H263.481C265.161 55.2 266.841 53.76 266.841 49.6V20H263.561V19.36H266.841V13.52C266.841 8 268.841 0.159999 278.521 0.159999ZM311.294 -3.8147e-06L322.094 0.0799952C320.334 0.879999 319.774 3.12 320.814 6.48L336.814 54.96L342.654 37.04L332.654 6.48C331.214 2.16 330.254 0.879999 328.574 0.0799952H339.374C337.614 0.879999 337.054 3.12 338.094 6.48L345.374 28.64L352.734 6.48C353.774 3.12 354.334 0.879999 352.574 0.0799952H357.534C355.774 0.879999 354.814 2.16 353.374 6.48L345.774 29.68L354.094 54.96L370.014 6.48C371.054 3.12 371.614 0.879999 369.854 0.0799952H374.814C373.374 0.719996 372.414 1.76 371.374 4.48C370.974 5.44 370.574 6.64 370.254 7.68L354.414 56H348.894L342.974 38L337.134 56H331.614L315.374 6.48C313.934 2.16 312.974 0.879999 311.294 -3.8147e-06ZM391.97 0.0799952C393.41 0.0799952 394.93 0.159999 396.45 0.399996C397.97 0.639997 399.41 0.959998 400.77 1.44C402.85 2.24 404.61 3.28 406.05 4.72C407.65 6.24 408.69 8 409.25 9.84C409.81 11.68 410.37 15.76 408.93 17.52C408.29 18.24 407.25 18.48 406.29 18.16C405.33 17.92 404.69 17.04 404.53 16.08C404.37 14.56 405.57 13.12 405.57 10.56C405.57 9.2 405.17 7.76 404.21 6.24C403.33 4.88 401.97 3.68 400.21 2.64C398.93 2 397.49 1.44 395.97 1.12C394.29 0.799995 392.69 0.719996 390.93 0.719996C389.41 0.799995 388.05 1.04 386.77 1.44C384.85 2 383.33 2.96 382.13 4.08C378.13 8.08 378.45 11.84 381.33 15.2C385.25 19.52 394.85 22.56 401.33 26.16C403.25 27.2 405.17 28.4 406.85 29.76C408.45 31.04 409.81 32.64 410.85 34.4C411.25 35.28 411.65 36.24 411.89 37.28C412.85 42.48 411.33 47.6 405.81 52.08C402.37 54.64 397.89 56.08 393.09 56H393.01C390.77 56 388.29 55.6 385.89 54.72C383.65 53.84 381.65 52.64 380.13 51.04C378.37 49.28 377.33 47.2 376.85 45.04C376.13 42.16 376.61 39.44 376.93 38.24C377.01 37.6 377.17 37.12 377.25 37.04L377.81 37.2C377.81 37.36 377.65 37.76 377.49 38.4C377.25 39.52 376.77 42.08 377.41 44.96C377.89 46.96 378.85 48.96 380.53 50.64C381.97 52.16 383.89 53.36 386.05 54.16C388.45 54.96 390.85 55.28 393.01 55.28H393.09C397.73 55.12 401.89 53.52 404.77 50.88C408.93 47.12 410.05 41.04 406.45 36.88C401.89 32 392.45 28.4 387.09 25.44C383.33 23.36 379.81 21.28 377.57 17.28C376.05 14.56 375.97 11.04 377.81 7.2C378.61 5.68 379.81 4.24 381.33 3.12C382.77 2 384.53 1.2 386.61 0.719996C388.21 0.319997 390.21 0.0799952 391.97 0.0799952ZM433.22 0.0799952C434.66 0.0799952 436.18 0.159999 437.7 0.399996C439.22 0.639997 440.66 0.959998 442.02 1.44C444.1 2.24 445.86 3.28 447.3 4.72C448.9 6.24 449.94 8 450.5 9.84C451.06 11.68 451.62 15.76 450.18 17.52C449.54 18.24 448.5 18.48 447.54 18.16C446.58 17.92 445.94 17.04 445.78 16.08C445.62 14.56 446.82 13.12 446.82 10.56C446.82 9.2 446.42 7.76 445.46 6.24C444.58 4.88 443.22 3.68 441.46 2.64C440.18 2 438.74 1.44 437.22 1.12C435.54 0.799995 433.94 0.719996 432.18 0.719996C430.66 0.799995 429.3 1.04 428.02 1.44C426.1 2 424.58 2.96 423.38 4.08C419.38 8.08 419.7 11.84 422.58 15.2C426.5 19.52 436.1 22.56 442.58 26.16C444.5 27.2 446.42 28.4 448.1 29.76C449.7 31.04 451.06 32.64 452.1 34.4C452.5 35.28 452.9 36.24 453.14 37.28C454.1 42.48 452.58 47.6 447.06 52.08C443.62 54.64 439.14 56.08 434.34 56H434.26C432.02 56 429.54 55.6 427.14 54.72C424.9 53.84 422.9 52.64 421.38 51.04C419.62 49.28 418.58 47.2 418.1 45.04C417.38 42.16 417.86 39.44 418.18 38.24C418.26 37.6 418.42 37.12 418.5 37.04L419.06 37.2C419.06 37.36 418.9 37.76 418.74 38.4C418.5 39.52 418.02 42.08 418.66 44.96C419.14 46.96 420.1 48.96 421.78 50.64C423.22 52.16 425.14 53.36 427.3 54.16C429.7 54.96 432.1 55.28 434.26 55.28H434.34C438.98 55.12 443.14 53.52 446.02 50.88C450.18 47.12 451.3 41.04 447.7 36.88C443.14 32 433.7 28.4 428.34 25.44C424.58 23.36 421.06 21.28 418.82 17.28C417.3 14.56 417.22 11.04 419.06 7.2C419.86 5.68 421.06 4.24 422.58 3.12C424.02 2 425.78 1.2 427.86 0.719996C429.46 0.319997 431.46 0.0799952 433.22 0.0799952Z" fill="white"/>
</svg>
