<svg width="611" height="403" viewBox="0 0 611 403" fill="none" xmlns="http://www.w3.org/2000/svg">
<path d="M156.965 0.965471L165.65 1.02981C164.235 1.67316 163.785 3.47454 164.621 6.17661L177.488 45.1636L182.184 30.7526L174.142 6.17661C172.984 2.70252 172.212 1.67316 170.861 1.02981H179.547C178.131 1.67316 177.681 3.47454 178.517 6.17661L184.372 23.9974L190.291 6.17661C191.127 3.47454 191.577 1.67316 190.162 1.02981H194.151C192.735 1.67316 191.963 2.70252 190.805 6.17661L184.693 24.8338L191.384 45.1636L204.187 6.17661C205.023 3.47454 205.474 1.67316 204.058 1.02981H208.047C206.889 1.54449 206.117 2.38084 205.281 4.56823C204.959 5.34025 204.637 6.30528 204.38 7.14164L191.642 46H187.202L182.442 31.5246L177.745 46H173.306L160.246 6.17661C159.088 2.70252 158.316 1.67316 156.965 0.965471ZM217.56 16.5989C225.731 16.5989 232.293 23.1611 232.293 31.3316C232.293 39.4378 225.731 46 217.56 46C209.454 46 202.892 39.4378 202.892 31.3316C202.892 23.1611 209.454 16.5989 217.56 16.5989ZM215.373 17.5639C214.408 17.5639 213.378 17.6926 212.413 18.0786C207.009 20.2016 204.95 27.8575 207.781 35.1274C210.612 42.4616 217.303 46.6434 222.707 44.5203C228.111 42.4616 230.234 34.8057 227.403 27.4715C225.087 21.4884 220.069 17.5639 215.373 17.5639ZM250.777 16.4702C251.613 16.4702 252.578 16.5346 253.672 16.8562C254.894 17.1779 256.116 17.6926 257.274 18.5933C259.269 20.1373 260.427 22.003 260.942 24.5121C261.135 23.9974 261.263 23.5471 261.456 23.0324C261.842 21.9387 262.486 20.7807 263.386 19.7513C264.223 18.7219 265.252 17.9499 266.346 17.4352C267.632 16.7919 268.855 16.5989 269.691 16.5346C271.106 16.4702 272.393 16.4702 273.873 16.8562C275.031 17.1779 276.253 17.6926 277.411 18.5933C280.306 20.845 281.464 23.7401 281.464 28.2435V40.8532C281.464 44.1986 282.751 45.3566 284.166 46.0643H281.464H277.283V28.0505C277.283 22.8394 275.674 17.3709 269.755 17.3709C268.983 17.3709 267.89 17.5639 266.667 18.0786C265.702 18.5933 264.737 19.301 263.837 20.2016C263 21.1023 262.421 22.196 261.971 23.2254C261.392 24.7051 261.263 26.5065 261.263 28.2435V40.8532C261.263 44.1986 262.55 45.3566 263.965 46H254.379C255.795 45.3566 257.081 44.1986 257.081 40.8532V28.0505C257.081 22.8394 255.537 17.3709 249.554 17.3709C248.782 17.3709 247.688 17.5639 246.53 18.0786C245.501 18.5933 244.536 19.301 243.7 20.2016C242.863 21.1023 242.22 22.196 241.834 23.2254C241.191 24.8981 241.062 26.6352 241.126 28.6295V40.8532C241.126 44.1986 242.413 45.3566 243.828 46H234.242C235.593 45.3566 236.945 44.1986 236.945 40.8532V28.5009C236.945 22.1317 236.752 20.845 235.336 20.2016C237.588 20.2016 240.483 18.2073 241.126 16.5989V21.2953V23.5471C241.126 23.4184 241.191 23.2254 241.255 23.0324C241.705 21.9387 242.349 20.7807 243.185 19.7513C244.086 18.7219 245.115 17.9499 246.209 17.4352C247.495 16.7919 248.654 16.5989 249.554 16.5346C249.683 16.5346 249.876 16.5346 250.005 16.5346C250.262 16.5346 250.519 16.4702 250.777 16.4702ZM291.672 19.301C293.988 17.7569 296.497 16.5346 300.55 16.5346C304.153 16.5346 308.335 17.4996 310.329 20.3303C312.066 22.9037 311.938 26.1848 310.265 28.6295C309.493 29.7232 308.463 30.4953 307.434 31.0099C306.726 31.3959 305.89 31.782 305.054 32.1036C304.796 32.168 304.475 32.2966 304.217 32.4253C303.124 32.747 301.966 33.0687 300.743 33.3903C299.585 33.712 298.427 34.0337 297.334 34.3554C296.111 34.7414 295.146 35.1917 294.245 35.6421C293.859 35.8351 293.473 36.0281 293.152 36.2854C292.637 36.6071 292.187 37.0574 291.801 37.4434C291.608 37.7651 291.415 38.0225 291.222 38.2798C291.736 39.6952 292.38 40.8532 293.216 41.8826C294.052 42.9763 295.146 43.8126 296.24 44.456C296.948 44.7776 297.591 45.035 298.299 45.1636C298.878 45.2923 299.457 45.3566 299.971 45.421C303.059 45.4853 305.568 44.5846 307.37 43.3623C307.627 43.1693 307.884 42.9763 308.077 42.7832C309.042 42.0112 309.75 41.1105 310.329 40.0812C311.101 38.4728 311.037 37.1861 311.037 36.9931V36.9288H311.552V36.9931C311.552 37.1861 311.616 38.6015 310.78 40.2742C310.201 41.4322 309.429 42.3972 308.463 43.2336C308.206 43.4266 307.949 43.6196 307.691 43.8126C305.761 45.1636 303.188 46 299.971 46.0643C299.392 46.1287 298.813 46.1287 298.17 46.0643C297.398 46 296.626 45.8713 295.789 45.6783C294.438 45.3566 292.894 44.7776 291.479 43.8126C290.128 42.7832 288.841 41.4965 287.812 39.6952C286.847 37.8295 286.204 35.6421 286.075 33.2617C285.882 29.7876 286.461 26.8925 287.49 24.5121C288.584 22.0674 290.192 20.459 291.672 19.301ZM307.627 24.1261C307.627 19.4296 303.381 16.2129 298.685 17.3066C296.433 17.8856 294.245 19.494 293.152 20.9093C292.187 22.1317 291.35 23.6757 290.771 25.7345C290.321 27.6645 290.064 30.0449 290.257 33.0043C290.385 34.8057 290.643 36.3497 291.093 37.7008C291.222 37.5721 291.35 37.3791 291.479 37.1861C291.865 36.6714 292.315 36.2854 292.83 35.8351C293.152 35.5777 293.538 35.3847 293.924 35.1274C294.824 34.5484 295.854 34.0337 297.012 33.519C298.106 33.0687 299.199 32.6183 300.357 32.168C301.515 31.7176 302.545 31.2673 303.51 30.7526C303.767 30.6239 303.96 30.4953 304.217 30.3666C304.925 29.9162 305.44 29.4016 305.89 28.9512C306.984 27.7932 307.691 26.0561 307.627 24.1261ZM330.756 16.4702C331.592 16.4702 332.557 16.5346 333.651 16.8562C334.873 17.1779 336.095 17.6926 337.253 18.5933C340.148 20.845 341.242 23.7401 341.242 28.2435V40.8532C341.242 44.1986 342.529 45.3566 343.944 46.0643H337.06V28.0505C337.06 22.8394 335.516 17.3709 329.533 17.3709C328.761 17.3709 327.667 17.5639 326.509 18.0786C325.48 18.5933 324.515 19.301 323.679 20.2016C322.842 21.1023 322.199 22.196 321.813 23.2254C321.234 24.6408 321.105 26.2491 321.105 27.9219V40.8532C321.105 44.1986 322.392 45.3566 323.807 46H314.221C315.573 45.3566 316.924 44.1986 316.924 40.8532V28.5009C316.924 22.1317 316.731 20.845 315.315 20.2016C317.567 20.2016 320.462 18.2073 321.105 16.5989V21.2953V23.5471C321.105 23.4184 321.17 23.2254 321.234 23.0324C321.684 21.9387 322.328 20.7807 323.164 19.7513C324.065 18.7219 325.094 17.9499 326.188 17.4352C327.474 16.7919 328.633 16.5989 329.533 16.5346C329.662 16.5346 329.855 16.5346 329.984 16.5346C330.241 16.5346 330.498 16.4702 330.756 16.4702Z" fill="#55423C"/>
<path d="M43.6818 147.906C47.4439 147.906 51.4149 148.115 55.386 148.742C59.3571 149.369 63.1191 150.205 66.6722 151.459C72.1063 153.549 76.7044 156.267 80.4665 160.029C84.6465 164 87.3636 168.598 88.8266 173.405C90.2896 178.212 91.7527 188.871 87.9906 193.469C86.3186 195.35 83.6015 195.977 81.0935 195.141C78.5854 194.514 76.9134 192.215 76.4954 189.707C76.0774 185.736 79.2124 181.974 79.2124 175.286C79.2124 171.733 78.1674 167.971 75.6594 164C73.3603 160.447 69.8073 157.312 65.2092 154.594C61.8651 152.922 58.1031 151.459 54.132 150.623C49.7429 149.787 45.5628 149.578 40.9647 149.578C36.9937 149.787 33.4406 150.414 30.0965 151.459C25.0805 152.922 21.1094 155.43 17.9743 158.357C7.52414 168.807 8.36015 178.63 15.8843 187.408C26.1255 198.694 51.2059 206.636 68.1352 216.042C73.1513 218.759 78.1674 221.894 82.5565 225.447C86.7366 228.791 90.2896 232.971 93.0067 237.569C94.0517 239.868 95.0967 242.376 95.7237 245.093C98.2318 258.678 94.2607 272.055 79.8394 283.759C70.8523 290.447 59.1481 294.209 46.6078 294H46.3988C40.5467 294 34.0676 292.955 27.7975 290.656C21.9454 288.357 16.7203 285.222 12.7492 281.042C8.15115 276.444 5.4341 271.01 4.18008 265.366C2.29904 257.842 3.55306 250.736 4.38908 247.601C4.59808 245.929 5.01609 244.675 5.22509 244.466L6.68812 244.884C6.68812 245.302 6.27011 246.347 5.85211 248.019C5.22509 250.945 3.97107 257.633 5.6431 265.157C6.89712 270.383 9.40517 275.608 13.7942 279.997C17.5563 283.968 22.5724 287.103 28.2155 289.193C34.4856 291.283 40.7557 292.119 46.3988 292.119H46.6078C58.7301 291.701 69.5983 287.521 77.1224 280.624C87.9906 270.801 90.9166 254.916 81.5115 244.048C69.5983 231.299 44.9358 221.894 30.9326 214.161C21.1094 208.726 11.9132 203.292 6.06111 192.842C2.09004 185.736 1.88103 176.54 6.68812 166.508C8.77816 162.537 11.9132 158.775 15.8843 155.849C19.6464 152.922 24.2444 150.832 29.6785 149.578C33.8586 148.533 39.0837 147.906 43.6818 147.906ZM123.177 198.485V257.006C123.177 273.936 128.402 291.701 147.63 291.701C150.138 291.492 153.691 291.074 157.662 289.193C160.797 287.73 163.932 285.431 166.858 282.296C169.576 279.37 171.457 276.026 172.92 272.473C174.592 268.502 175.01 264.739 175.219 262.231V237.151C175.219 216.46 174.592 212.28 169.994 210.189C177.309 210.189 186.923 203.71 188.804 198.485V277.28C188.804 288.148 192.984 291.91 197.582 294.209H175.219V294V278.952V271.428C175.01 272.055 174.801 272.682 174.592 273.1C173.338 276.862 171.248 280.624 168.322 283.759C165.604 287.103 162.26 289.611 158.707 291.492C154.527 293.582 150.556 294.209 147.839 294.209C147.421 294.418 146.794 294.418 146.167 294.418C142.196 294.627 138.434 294.209 134.254 293.164C130.492 292.328 126.521 290.447 122.759 287.73C113.354 280.415 109.591 270.801 109.591 256.17V237.151C109.591 216.46 108.964 212.28 104.575 210.189C111.681 210.189 121.296 203.71 123.177 198.485ZM257.484 198.067C260.202 198.067 263.337 198.276 266.89 199.321C270.861 200.366 274.832 202.038 278.594 204.964C285.073 209.98 288.835 216.042 290.507 224.193C291.134 222.521 291.552 221.058 292.179 219.386C293.433 215.833 295.523 212.071 298.449 208.726C301.166 205.382 304.51 202.874 308.063 201.202C312.243 199.112 316.215 198.485 318.932 198.276C323.53 198.067 327.71 198.067 332.517 199.321C336.279 200.366 340.25 202.038 344.012 204.964C353.417 212.28 357.179 221.685 357.179 236.315V277.28C357.179 288.148 361.359 291.91 365.957 294.209H357.179H343.594V235.688C343.594 218.759 338.369 200.993 319.141 200.993C316.633 200.993 313.079 201.62 309.108 203.292C305.973 204.964 302.838 207.263 299.912 210.189C297.195 213.116 295.314 216.669 293.851 220.013C291.97 224.82 291.552 230.672 291.552 236.315V277.28C291.552 288.148 295.732 291.91 300.33 294H269.189C273.787 291.91 277.967 288.148 277.967 277.28V235.688C277.967 218.759 272.951 200.993 253.513 200.993C251.005 200.993 247.452 201.62 243.69 203.292C240.346 204.964 237.211 207.263 234.494 210.189C231.777 213.116 229.687 216.669 228.433 220.013C226.343 225.447 225.925 231.09 226.134 237.569V277.28C226.134 288.148 230.314 291.91 234.912 294H203.771C208.16 291.91 212.549 288.148 212.549 277.28V237.151C212.549 216.46 211.922 212.28 207.324 210.189C214.639 210.189 224.044 203.71 226.134 198.485V213.743V221.058C226.134 220.64 226.343 220.013 226.552 219.386C228.015 215.833 230.105 212.071 232.822 208.726C235.748 205.382 239.092 202.874 242.645 201.202C246.825 199.112 250.587 198.485 253.513 198.276C253.931 198.276 254.558 198.276 254.976 198.276C255.812 198.276 256.648 198.067 257.484 198.067ZM425.871 198.067C428.588 198.067 431.723 198.276 435.276 199.321C439.248 200.366 443.219 202.038 446.981 204.964C453.46 209.98 457.222 216.042 458.894 224.193C459.521 222.521 459.939 221.058 460.566 219.386C461.82 215.833 463.91 212.071 466.836 208.726C469.553 205.382 472.897 202.874 476.45 201.202C480.63 199.112 484.601 198.485 487.318 198.276C491.916 198.067 496.097 198.067 500.904 199.321C504.666 200.366 508.637 202.038 512.399 204.964C521.804 212.28 525.566 221.685 525.566 236.315V277.28C525.566 288.148 529.746 291.91 534.344 294.209H525.566H511.981V235.688C511.981 218.759 506.756 200.993 487.527 200.993C485.019 200.993 481.466 201.62 477.495 203.292C474.36 204.964 471.225 207.263 468.299 210.189C465.582 213.116 463.701 216.669 462.238 220.013C460.357 224.82 459.939 230.672 459.939 236.315V277.28C459.939 288.148 464.119 291.91 468.717 294H437.576C442.174 291.91 446.354 288.148 446.354 277.28V235.688C446.354 218.759 441.338 200.993 421.9 200.993C419.392 200.993 415.839 201.62 412.077 203.292C408.733 204.964 405.598 207.263 402.881 210.189C400.164 213.116 398.074 216.669 396.82 220.013C394.73 225.447 394.312 231.09 394.521 237.569V277.28C394.521 288.148 398.701 291.91 403.299 294H372.157C376.546 291.91 380.935 288.148 380.935 277.28V237.151C380.935 216.46 380.308 212.28 375.71 210.189C383.026 210.189 392.431 203.71 394.521 198.485V213.743V221.058C394.521 220.64 394.73 220.013 394.939 219.386C396.402 215.833 398.492 212.071 401.209 208.726C404.135 205.382 407.479 202.874 411.032 201.202C415.212 199.112 418.974 198.485 421.9 198.276C422.318 198.276 422.945 198.276 423.363 198.276C424.199 198.276 425.035 198.067 425.871 198.067ZM554.338 176.958C558.937 176.958 562.908 180.929 562.908 185.527C562.908 190.334 558.937 194.096 554.338 194.096C549.531 194.096 545.769 190.334 545.769 185.527C545.769 180.929 549.531 176.958 554.338 176.958ZM562.908 198.485V213.743V277.28C562.908 288.148 567.088 291.91 571.686 294.209H540.544C544.933 291.91 549.322 288.148 549.322 277.28V237.151C549.322 216.46 548.695 212.28 544.097 210.189C551.412 210.189 560.818 203.71 562.908 198.485ZM593.514 154.385V198.276H607.099V199.948H593.514V304.241C593.514 314.9 597.694 318.662 602.292 320.961H596.858C587.87 320.961 579.928 314.482 579.928 298.389V199.948H571.568V198.276H579.928V193.051C579.928 172.151 579.301 168.18 574.703 166.09C582.018 166.09 591.424 159.611 593.514 154.385Z" fill="#E86F14"/>
<path d="M72.4372 22.0775C76.4366 22.0775 80.6582 22.2997 84.8797 22.9663C89.1013 23.6328 93.1007 24.5216 96.8779 25.8547C102.655 28.0766 107.543 30.965 111.542 34.9644C115.986 39.186 118.874 44.0741 120.43 49.1844C121.985 54.2947 123.54 65.6263 119.541 70.5144C117.764 72.5141 114.875 73.1807 112.209 72.2919C109.543 71.6254 107.765 69.1813 107.321 66.5151C106.876 62.2935 110.209 58.2941 110.209 51.1841C110.209 47.4069 109.098 43.4075 106.432 39.186C103.988 35.4088 100.211 32.076 95.3226 29.1875C91.7676 27.41 87.7682 25.8547 83.5466 24.9659C78.8807 24.0772 74.4369 23.855 69.5488 23.855C65.3272 24.0772 61.55 24.7438 57.995 25.8547C52.6625 27.41 48.441 30.0763 45.1081 33.1869C33.9988 44.2963 34.8875 54.7391 42.8863 64.071C53.7735 76.0691 80.436 84.5123 98.4332 94.5107C103.766 97.3991 109.098 100.732 113.764 104.509C118.208 108.064 121.985 112.508 124.874 117.396C125.984 119.84 127.095 122.506 127.762 125.395C130.428 139.837 126.207 154.057 110.876 166.5C101.322 173.61 88.8791 177.609 75.5479 177.387H75.3257C69.1044 177.387 62.2166 176.276 55.551 173.832C49.3297 171.388 43.775 168.055 39.5535 163.611C34.6653 158.723 31.7769 152.946 30.4438 146.947C28.4441 138.948 29.7772 131.394 30.6659 128.061C30.8881 126.284 31.3325 124.95 31.5547 124.728L33.11 125.173C33.11 125.617 32.6656 126.728 32.2213 128.505C31.5547 131.616 30.2216 138.726 31.9991 146.725C33.3322 152.28 35.9984 157.834 40.6644 162.5C44.6638 166.722 49.9963 170.055 55.9953 172.276C62.661 174.498 69.3266 175.387 75.3257 175.387H75.5479C88.4347 174.943 99.9885 170.499 107.987 163.167C119.541 152.724 122.652 135.838 112.653 124.284C99.9885 110.73 73.7704 100.732 58.8838 92.511C48.441 86.7341 38.6647 80.9573 32.4434 69.8479C28.2219 62.2935 27.9997 52.5172 33.11 41.8522C35.3319 37.6307 38.6647 33.6313 42.8863 30.5206C46.8856 27.41 51.7738 25.1881 57.5507 23.855C61.9944 22.7441 67.5491 22.0775 72.4372 22.0775ZM158.332 28.9653V75.6247H172.774V77.4023H158.332V188.274C158.332 199.605 162.776 203.605 167.664 206.049H161.887C152.333 206.049 143.89 199.161 143.89 182.053V77.4023H135.002V75.6247H143.89V70.0701C143.89 47.8513 143.223 43.6297 138.335 41.4078C146.112 41.4078 156.11 34.52 158.332 28.9653ZM177.867 110.508C176.09 104.731 178.311 94.9551 185.866 86.7341C192.754 79.6241 201.863 75.8469 213.195 75.8469C225.193 75.8469 239.635 80.5129 245.856 93.622C248.301 98.9545 249.189 106.064 249.189 113.174V159.612C249.189 171.165 253.633 175.165 258.521 177.609H249.189H234.747V160.723C234.525 161.167 234.303 161.611 234.081 162.278C232.747 165.166 230.526 167.833 227.859 170.277C224.971 172.499 221.86 174.276 218.75 175.609C216.75 176.498 214.75 176.942 213.195 177.387C211.417 177.831 209.862 178.275 208.307 178.498C204.53 179.164 200.752 179.386 197.42 179.164C196.309 179.164 195.42 179.164 194.531 178.942C191.865 178.72 189.199 178.053 186.532 177.165C177.645 173.832 172.757 166.944 172.757 156.945C172.535 152.502 173.645 148.502 175.645 144.503C175.645 144.503 175.645 144.281 175.867 144.281C177.645 140.726 180.533 137.615 184.31 135.171C187.421 133.171 190.976 131.616 194.753 130.061C195.642 129.616 196.531 129.394 197.42 128.95C200.086 128.061 202.308 127.172 205.863 125.839C208.973 124.728 213.195 123.395 216.528 122.062C220.083 120.729 223.193 119.174 225.86 117.618C227.415 116.729 228.526 115.841 229.637 114.952C230.748 114.063 231.636 112.952 232.303 112.064C233.192 110.73 233.636 109.619 234.081 108.509C234.525 107.175 234.525 106.064 234.747 105.398C234.747 102.954 234.525 99.8432 234.081 97.6213C233.636 94.2885 232.525 91.1779 230.97 88.2894C229.192 85.401 226.971 82.9569 224.082 80.9573C220.527 78.7354 216.75 77.6244 213.195 77.6244C205.196 77.6244 194.531 81.1794 191.865 87.8451C189.421 94.0663 190.532 97.6213 191.198 102.287C191.643 105.176 192.309 108.731 190.976 111.397C189.643 113.841 187.199 115.396 184.533 115.396C181.422 115.396 178.534 113.397 177.867 110.508ZM234.747 111.175C234.525 111.619 234.081 112.286 233.636 112.952C232.97 114.063 231.859 115.174 230.526 116.285C229.415 117.174 228.081 118.063 226.748 118.951C223.86 120.729 220.749 122.062 217.194 123.617C213.639 125.173 209.862 126.506 206.529 127.839C203.419 129.172 200.975 130.505 198.753 131.838C197.864 132.283 197.197 132.727 196.531 133.171C193.198 135.393 190.754 137.837 188.976 140.281C186.977 143.17 186.31 145.836 185.644 148.28C185.644 148.28 185.644 148.28 185.644 148.502C184.088 155.835 185.644 162.945 190.976 169.166C192.531 170.499 194.087 171.61 196.086 172.499C196.975 172.721 197.642 173.165 198.53 173.387C201.197 174.276 204.53 174.943 208.085 174.943C209.418 174.943 210.973 174.72 212.528 174.498C214.084 174.276 215.861 173.832 217.861 173.165C220.749 172.276 223.86 170.721 226.526 168.721C229.192 166.5 231.192 164.055 232.525 161.389C235.191 156.057 234.969 148.28 234.747 141.17V111.175ZM288.747 75.8469V92.0666V106.731C290.08 102.287 292.302 98.0657 294.969 94.2885C305.189 80.7351 318.298 74.736 329.63 76.0691C334.518 76.7357 339.184 78.291 339.184 83.8457C339.184 86.5119 337.851 88.7338 335.851 90.067C332.518 92.0666 328.963 90.7335 325.631 89.1782C322.964 87.6229 321.187 85.8454 317.632 84.9566C310.522 83.1791 305.411 86.0676 301.412 89.8448C294.302 96.7326 288.525 108.286 288.747 121.84V159.612C288.747 171.165 293.191 175.165 298.079 177.387H264.973C269.639 175.165 274.305 171.165 274.305 159.612V116.952C274.305 94.9551 273.639 90.5113 268.75 88.2894C276.527 88.2894 286.525 81.4016 288.747 75.8469ZM369.237 28.9653V75.6247H383.679V77.4023H369.237V188.274C369.237 199.605 373.68 203.605 378.568 206.049H372.792C363.238 206.049 354.794 199.161 354.794 182.053V77.4023H345.907V75.6247H354.794V70.0701C354.794 47.8513 354.128 43.6297 349.24 41.4078C357.016 41.4078 367.015 34.52 369.237 28.9653ZM401.266 75.8469V138.059C401.266 156.057 406.821 174.943 427.262 174.943C429.929 174.72 433.706 174.276 437.927 172.276C441.26 170.721 444.593 168.277 447.704 164.944C450.592 161.834 452.592 158.279 454.147 154.501C455.925 150.28 456.369 146.28 456.591 143.614V116.952C456.591 94.9551 455.925 90.5113 451.036 88.2894C458.813 88.2894 469.034 81.4016 471.033 75.8469V159.612C471.033 171.165 475.477 175.165 480.365 177.609H456.591V177.387V161.389V153.39C456.369 154.057 456.147 154.724 455.925 155.168C454.591 159.167 452.37 163.167 449.259 166.5C446.37 170.055 442.815 172.721 439.038 174.72C434.594 176.942 430.373 177.609 427.484 177.609C427.04 177.831 426.374 177.831 425.707 177.831C421.485 178.053 417.486 177.609 413.042 176.498C409.043 175.609 404.821 173.61 400.822 170.721C390.824 162.945 386.824 152.724 386.824 137.171V116.952C386.824 94.9551 386.158 90.5113 381.492 88.2894C389.046 88.2894 399.267 81.4016 401.266 75.8469ZM544.595 75.8469C572.59 75.8469 595.476 98.5101 595.476 126.728C595.476 154.724 572.59 177.387 544.595 177.387C529.93 177.387 515.933 171.165 506.378 160.056V213.603C506.378 225.157 510.822 229.156 515.71 231.378H482.604C487.27 229.156 491.936 225.157 491.936 213.603V116.952C491.936 94.9551 491.27 90.5113 486.382 88.2894C494.158 88.2894 504.157 81.4016 506.378 75.8469V93.1776C515.933 82.2904 529.93 75.8469 544.595 75.8469ZM537.04 79.1797C533.485 79.1797 530.153 79.8463 526.82 80.9573C508.156 88.2894 500.824 114.73 510.6 139.837C520.598 165.166 543.706 179.609 562.37 172.276C581.034 165.166 588.366 138.726 578.589 113.397C570.591 93.1776 553.704 79.1797 537.04 79.1797Z" fill="#ED9D02"/>
<path d="M132.52 392C132.093 392 131.88 391.853 131.88 391.56L131.96 391.24L141.84 364.16C141.92 363.893 142.027 363.72 142.16 363.64C142.293 363.533 142.507 363.48 142.8 363.48H144.28C144.547 363.48 144.747 363.533 144.88 363.64C145.013 363.72 145.133 363.88 145.24 364.12L155.08 391.24L155.16 391.56C155.16 391.853 154.947 392 154.52 392H153.16C152.733 392 152.427 391.96 152.24 391.88C152.08 391.773 151.96 391.573 151.88 391.28L149.24 383.76H137.72L135.08 391.28C134.973 391.573 134.84 391.773 134.68 391.88C134.52 391.96 134.227 392 133.8 392H132.52ZM148.36 381.24L144.12 369.08C143.773 367.88 143.587 366.987 143.56 366.4H143.4C143.293 367.227 143.107 368.12 142.84 369.08L138.6 381.24H148.36ZM165.965 392.56C163.538 392.56 161.738 391.893 160.565 390.56C159.391 389.227 158.805 387.293 158.805 384.76V372.16C158.805 371.893 158.845 371.707 158.925 371.6C159.031 371.493 159.205 371.44 159.445 371.44H160.845C161.085 371.44 161.258 371.493 161.365 371.6C161.471 371.707 161.525 371.893 161.525 372.16V384.64C161.525 386.48 161.898 387.853 162.645 388.76C163.418 389.64 164.645 390.08 166.325 390.08C168.165 390.08 169.645 389.8 170.765 389.24C171.031 389.107 171.205 388.96 171.285 388.8C171.365 388.64 171.405 388.413 171.405 388.12V372.16C171.405 371.893 171.445 371.707 171.525 371.6C171.631 371.493 171.805 371.44 172.045 371.44H173.445C173.685 371.44 173.858 371.493 173.965 371.6C174.071 371.707 174.125 371.893 174.125 372.16V389.04C174.125 389.653 174.031 390.12 173.845 390.44C173.658 390.733 173.285 391.013 172.725 391.28C170.778 392.133 168.525 392.56 165.965 392.56ZM187.372 401.88C185.559 401.88 184.079 401.507 182.932 400.76C181.785 400.013 180.879 398.96 180.212 397.6C180.079 397.333 180.012 397.147 180.012 397.04C180.012 396.8 180.159 396.6 180.452 396.44L181.452 395.92C181.719 395.813 181.879 395.76 181.932 395.76C182.145 395.76 182.345 395.92 182.532 396.24C183.012 397.253 183.625 398.027 184.372 398.56C185.119 399.12 186.105 399.4 187.332 399.4C189.092 399.4 190.359 398.893 191.132 397.88C191.932 396.893 192.332 395.413 192.332 393.44V390.92C190.785 391.693 188.972 392.08 186.892 392.08C182.065 392.08 179.652 389.507 179.652 384.36V379.04C179.652 373.573 182.292 370.84 187.572 370.84C188.825 370.84 189.972 370.96 191.012 371.2C192.079 371.413 192.972 371.68 193.692 372C194.252 372.267 194.612 372.56 194.772 372.88C194.959 373.173 195.052 373.653 195.052 374.32V393.32C195.052 399.027 192.492 401.88 187.372 401.88ZM182.372 384.2C182.372 386.013 182.759 387.36 183.532 388.24C184.305 389.12 185.532 389.56 187.212 389.56C189.185 389.56 190.892 389.2 192.332 388.48V375.12C192.332 374.827 192.292 374.627 192.212 374.52C192.132 374.387 191.945 374.24 191.652 374.08C190.479 373.573 189.145 373.32 187.652 373.32C185.812 373.32 184.465 373.787 183.612 374.72C182.785 375.653 182.372 377.12 182.372 379.12V384.2ZM208.308 392.56C205.882 392.56 204.082 391.893 202.908 390.56C201.735 389.227 201.148 387.293 201.148 384.76V372.16C201.148 371.893 201.188 371.707 201.268 371.6C201.375 371.493 201.548 371.44 201.788 371.44H203.188C203.428 371.44 203.602 371.493 203.708 371.6C203.815 371.707 203.868 371.893 203.868 372.16V384.64C203.868 386.48 204.242 387.853 204.988 388.76C205.762 389.64 206.988 390.08 208.668 390.08C210.508 390.08 211.988 389.8 213.108 389.24C213.375 389.107 213.548 388.96 213.628 388.8C213.708 388.64 213.748 388.413 213.748 388.12V372.16C213.748 371.893 213.788 371.707 213.868 371.6C213.975 371.493 214.148 371.44 214.388 371.44H215.788C216.028 371.44 216.202 371.493 216.308 371.6C216.415 371.707 216.468 371.893 216.468 372.16V389.04C216.468 389.653 216.375 390.12 216.188 390.44C216.002 390.733 215.628 391.013 215.068 391.28C213.122 392.133 210.868 392.56 208.308 392.56ZM229.316 392.56C227.289 392.56 225.636 392.173 224.356 391.4C223.076 390.627 222.129 389.373 221.516 387.64C221.462 387.427 221.436 387.293 221.436 387.24C221.436 386.947 221.596 386.747 221.916 386.64L223.196 386.28L223.556 386.2C223.689 386.2 223.796 386.24 223.876 386.32C223.956 386.4 224.036 386.533 224.116 386.72C224.516 387.947 225.142 388.827 225.996 389.36C226.876 389.893 227.982 390.16 229.316 390.16C230.916 390.16 232.116 389.853 232.916 389.24C233.716 388.6 234.116 387.707 234.116 386.56C234.116 385.253 233.729 384.36 232.956 383.88C232.182 383.4 230.916 383.067 229.156 382.88C227.609 382.72 226.329 382.48 225.316 382.16C224.302 381.813 223.476 381.227 222.836 380.4C222.196 379.547 221.876 378.347 221.876 376.8C221.876 374.96 222.502 373.52 223.756 372.48C225.036 371.413 226.822 370.88 229.116 370.88C231.116 370.88 232.689 371.253 233.836 372C234.982 372.72 235.836 373.773 236.396 375.16C236.476 375.347 236.516 375.52 236.516 375.68C236.516 375.947 236.369 376.133 236.076 376.24L235.036 376.64C234.849 376.72 234.702 376.76 234.596 376.76C234.462 376.76 234.289 376.6 234.076 376.28C233.702 375.293 233.129 374.547 232.356 374.04C231.582 373.533 230.502 373.28 229.116 373.28C227.622 373.28 226.489 373.587 225.716 374.2C224.942 374.813 224.556 375.68 224.556 376.8C224.556 377.787 224.756 378.533 225.156 379.04C225.582 379.52 226.129 379.853 226.796 380.04C227.489 380.227 228.476 380.387 229.756 380.52C232.049 380.787 233.796 381.347 234.996 382.2C236.222 383.027 236.836 384.467 236.836 386.52C236.836 388.413 236.196 389.893 234.916 390.96C233.636 392.027 231.769 392.56 229.316 392.56ZM250.772 392C248.905 392.053 247.452 391.88 246.412 391.48C245.372 391.08 244.612 390.333 244.132 389.24C243.652 388.147 243.412 386.52 243.412 384.36V373.96H240.292C240.025 373.96 239.838 373.907 239.732 373.8C239.652 373.693 239.612 373.493 239.612 373.2V372.16C239.612 371.893 239.652 371.707 239.732 371.6C239.838 371.493 240.025 371.44 240.292 371.44H243.412V367.36C243.412 367.093 243.452 366.907 243.532 366.8C243.638 366.693 243.825 366.64 244.092 366.64H245.452C245.718 366.64 245.892 366.693 245.972 366.8C246.078 366.907 246.132 367.093 246.132 367.36V371.44H250.812C251.078 371.44 251.252 371.493 251.332 371.6C251.438 371.707 251.492 371.893 251.492 372.16V373.2C251.492 373.493 251.438 373.693 251.332 373.8C251.252 373.907 251.078 373.96 250.812 373.96H246.132V384.24C246.132 385.733 246.265 386.84 246.532 387.56C246.798 388.28 247.225 388.773 247.812 389.04C248.425 389.28 249.318 389.4 250.492 389.4C250.892 389.4 251.145 389.44 251.252 389.52C251.385 389.6 251.452 389.773 251.452 390.04V391.24C251.452 391.533 251.398 391.733 251.292 391.84C251.212 391.947 251.038 392 250.772 392ZM265.139 392C264.873 392 264.673 391.947 264.539 391.84C264.433 391.707 264.379 391.493 264.379 391.2V387.88C264.379 386.2 264.713 384.787 265.379 383.64C266.073 382.467 266.939 381.533 267.979 380.84C269.046 380.12 270.353 379.427 271.899 378.76L273.379 378.16C274.766 377.6 275.846 377.093 276.619 376.64C277.393 376.187 278.033 375.56 278.539 374.76C279.073 373.96 279.339 372.92 279.339 371.64C279.339 369.827 278.833 368.4 277.819 367.36C276.833 366.293 275.499 365.76 273.819 365.76C272.113 365.76 270.739 366.133 269.699 366.88C268.659 367.627 267.819 368.8 267.179 370.4C267.099 370.613 267.019 370.76 266.939 370.84C266.859 370.92 266.766 370.96 266.659 370.96C266.606 370.96 266.473 370.933 266.259 370.88L264.939 370.44C264.593 370.333 264.419 370.147 264.419 369.88C264.419 369.693 264.446 369.547 264.499 369.44C265.326 367.307 266.486 365.707 267.979 364.64C269.473 363.573 271.459 363.04 273.939 363.04C275.673 363.04 277.166 363.413 278.419 364.16C279.699 364.88 280.673 365.893 281.339 367.2C282.033 368.48 282.379 369.933 282.379 371.56C282.379 373.4 282.019 374.88 281.299 376C280.606 377.12 279.713 378 278.619 378.64C277.553 379.253 275.953 380.027 273.819 380.96C272.433 381.547 271.313 382.107 270.459 382.64C269.606 383.147 268.899 383.8 268.339 384.6C267.806 385.373 267.539 386.333 267.539 387.48V389.28H281.539C281.833 389.28 282.033 389.333 282.139 389.44C282.246 389.547 282.299 389.747 282.299 390.04V391.2C282.299 391.493 282.246 391.707 282.139 391.84C282.033 391.947 281.833 392 281.539 392H265.139ZM297.107 392.56C294.147 392.56 291.841 391.733 290.187 390.08C288.534 388.427 287.707 386.16 287.707 383.28V372.32C287.707 369.467 288.534 367.213 290.187 365.56C291.841 363.88 294.147 363.04 297.107 363.04C300.067 363.04 302.374 363.88 304.027 365.56C305.681 367.213 306.507 369.467 306.507 372.32V383.28C306.507 386.16 305.681 388.427 304.027 390.08C302.374 391.733 300.067 392.56 297.107 392.56ZM290.627 383.28C290.627 385.36 291.187 386.973 292.307 388.12C293.427 389.267 295.027 389.84 297.107 389.84C299.161 389.84 300.747 389.267 301.867 388.12C302.987 386.973 303.547 385.36 303.547 383.28V372.32C303.547 370.24 302.987 368.627 301.867 367.48C300.747 366.333 299.161 365.76 297.107 365.76C295.027 365.76 293.427 366.333 292.307 367.48C291.187 368.627 290.627 370.24 290.627 372.32V383.28ZM312.6 392C312.334 392 312.134 391.947 312 391.84C311.894 391.707 311.84 391.493 311.84 391.2V387.88C311.84 386.2 312.174 384.787 312.84 383.64C313.534 382.467 314.4 381.533 315.44 380.84C316.507 380.12 317.814 379.427 319.36 378.76L320.84 378.16C322.227 377.6 323.307 377.093 324.08 376.64C324.854 376.187 325.494 375.56 326 374.76C326.534 373.96 326.8 372.92 326.8 371.64C326.8 369.827 326.294 368.4 325.28 367.36C324.294 366.293 322.96 365.76 321.28 365.76C319.574 365.76 318.2 366.133 317.16 366.88C316.12 367.627 315.28 368.8 314.64 370.4C314.56 370.613 314.48 370.76 314.4 370.84C314.32 370.92 314.227 370.96 314.12 370.96C314.067 370.96 313.934 370.933 313.72 370.88L312.4 370.44C312.054 370.333 311.88 370.147 311.88 369.88C311.88 369.693 311.907 369.547 311.96 369.44C312.787 367.307 313.947 365.707 315.44 364.64C316.934 363.573 318.92 363.04 321.4 363.04C323.134 363.04 324.627 363.413 325.88 364.16C327.16 364.88 328.134 365.893 328.8 367.2C329.494 368.48 329.84 369.933 329.84 371.56C329.84 373.4 329.48 374.88 328.76 376C328.067 377.12 327.174 378 326.08 378.64C325.014 379.253 323.414 380.027 321.28 380.96C319.894 381.547 318.774 382.107 317.92 382.64C317.067 383.147 316.36 383.8 315.8 384.6C315.267 385.373 315 386.333 315 387.48V389.28H329C329.294 389.28 329.494 389.333 329.6 389.44C329.707 389.547 329.76 389.747 329.76 390.04V391.2C329.76 391.493 329.707 391.707 329.6 391.84C329.494 391.947 329.294 392 329 392H312.6ZM347.9 392C347.607 392 347.407 391.947 347.3 391.84C347.194 391.707 347.14 391.493 347.14 391.2V384.28H334.06C333.794 384.28 333.607 384.227 333.5 384.12C333.394 383.987 333.34 383.773 333.34 383.48V382.64C333.34 382.4 333.354 382.213 333.38 382.08C333.434 381.92 333.527 381.76 333.66 381.6L346.58 363.88C346.767 363.64 346.927 363.48 347.06 363.4C347.22 363.32 347.434 363.28 347.7 363.28H349.1C349.394 363.28 349.594 363.347 349.7 363.48C349.834 363.587 349.9 363.8 349.9 364.12V381.68H353.22C353.514 381.68 353.714 381.747 353.82 381.88C353.927 381.987 353.98 382.187 353.98 382.48V383.48C353.98 383.773 353.927 383.987 353.82 384.12C353.714 384.227 353.514 384.28 353.22 384.28H349.9V391.2C349.9 391.493 349.847 391.707 349.74 391.84C349.634 391.947 349.434 392 349.14 392H347.9ZM347.14 381.68V367.32L336.66 381.68H347.14ZM372.023 363.8V392.24L368.863 392V363.56L372.023 363.8ZM389.579 392C389.312 392 389.125 391.947 389.019 391.84C388.912 391.707 388.859 391.493 388.859 391.2V364.4C388.859 364.107 388.912 363.907 389.019 363.8C389.125 363.667 389.312 363.6 389.579 363.6H391.019C391.312 363.6 391.512 363.667 391.619 363.8C391.725 363.907 391.779 364.107 391.779 364.4V376.24H395.539C395.885 376.24 396.139 376.253 396.299 376.28L403.979 364.28C404.165 363.987 404.339 363.8 404.499 363.72C404.659 363.64 404.925 363.6 405.299 363.6H406.899C407.272 363.6 407.459 363.733 407.459 364C407.459 364.107 407.419 364.24 407.339 364.4L399.099 376.84C399.979 377.133 400.725 377.64 401.339 378.36C401.979 379.08 402.579 380.053 403.139 381.28L407.699 391.2C407.779 391.36 407.819 391.493 407.819 391.6C407.819 391.867 407.632 392 407.259 392H405.739C405.339 392 405.072 391.96 404.939 391.88C404.805 391.8 404.672 391.6 404.539 391.28L400.539 382.36C399.952 381.107 399.325 380.227 398.659 379.72C397.992 379.213 397.032 378.96 395.779 378.96H391.779V391.2C391.779 391.493 391.725 391.707 391.619 391.84C391.512 391.947 391.312 392 391.019 392H389.579ZM418.746 392.56C416.266 392.56 414.319 391.92 412.906 390.64C411.492 389.333 410.786 387.533 410.786 385.24V378.2C410.786 375.907 411.492 374.107 412.906 372.8C414.319 371.493 416.266 370.84 418.746 370.84C421.252 370.84 423.212 371.493 424.626 372.8C426.066 374.107 426.786 375.907 426.786 378.2V385.24C426.786 387.533 426.066 389.333 424.626 390.64C423.212 391.92 421.252 392.56 418.746 392.56ZM413.506 385.24C413.506 386.76 413.972 387.96 414.906 388.84C415.866 389.693 417.146 390.12 418.746 390.12C420.372 390.12 421.666 389.693 422.626 388.84C423.586 387.96 424.066 386.76 424.066 385.24V378.2C424.066 376.68 423.586 375.493 422.626 374.64C421.666 373.76 420.372 373.32 418.746 373.32C417.146 373.32 415.866 373.76 414.906 374.64C413.972 375.493 413.506 376.68 413.506 378.2V385.24ZM439.521 392.56C436.961 392.56 435.015 391.893 433.681 390.56C432.375 389.2 431.721 387.267 431.721 384.76V378.68C431.721 376.2 432.388 374.28 433.721 372.92C435.081 371.533 437.081 370.84 439.721 370.84C443.721 370.84 446.228 372.64 447.241 376.24C447.295 376.453 447.321 376.6 447.321 376.68C447.321 376.973 447.148 377.173 446.801 377.28L445.761 377.64C445.548 377.693 445.415 377.72 445.361 377.72C445.121 377.72 444.935 377.52 444.801 377.12C444.401 375.787 443.801 374.813 443.001 374.2C442.228 373.587 441.108 373.28 439.641 373.28C437.935 373.28 436.641 373.747 435.761 374.68C434.881 375.613 434.441 376.933 434.441 378.64V384.76C434.441 386.467 434.881 387.8 435.761 388.76C436.641 389.693 437.921 390.16 439.601 390.16C441.015 390.16 442.121 389.84 442.921 389.2C443.721 388.56 444.335 387.547 444.761 386.16C444.841 385.947 444.921 385.8 445.001 385.72C445.081 385.64 445.188 385.6 445.321 385.6C445.375 385.6 445.508 385.627 445.721 385.68L446.881 386C447.255 386.133 447.441 386.333 447.441 386.6C447.441 386.733 447.401 386.88 447.321 387.04C446.681 388.933 445.748 390.333 444.521 391.24C443.321 392.12 441.655 392.56 439.521 392.56ZM453.16 392C452.92 392 452.747 391.947 452.64 391.84C452.56 391.733 452.52 391.547 452.52 391.28V363.12C452.52 362.853 452.56 362.667 452.64 362.56C452.747 362.453 452.92 362.4 453.16 362.4H454.56C454.8 362.4 454.974 362.453 455.08 362.56C455.187 362.667 455.24 362.853 455.24 363.12V371.96C455.854 371.64 456.627 371.373 457.56 371.16C458.494 370.947 459.52 370.84 460.64 370.84C465.44 370.84 467.84 373.427 467.84 378.6V391.28C467.84 391.547 467.787 391.733 467.68 391.84C467.574 391.947 467.4 392 467.16 392H465.76C465.52 392 465.347 391.947 465.24 391.84C465.16 391.733 465.12 391.547 465.12 391.28V378.76C465.12 376.947 464.72 375.587 463.92 374.68C463.147 373.773 461.934 373.32 460.28 373.32C458.307 373.32 456.627 373.693 455.24 374.44V391.28C455.24 391.547 455.187 391.733 455.08 391.84C454.974 391.947 454.8 392 454.56 392H453.16ZM474.685 392C474.418 392 474.231 391.947 474.125 391.84C474.018 391.733 473.965 391.547 473.965 391.28V372.16C473.965 371.893 474.018 371.707 474.125 371.6C474.231 371.493 474.418 371.44 474.685 371.44H475.965C476.258 371.44 476.445 371.493 476.525 371.6C476.631 371.68 476.685 371.867 476.685 372.16V391.28C476.685 391.547 476.631 391.733 476.525 391.84C476.418 391.947 476.231 392 475.965 392H474.685ZM473.645 365.08C473.645 364.573 473.725 364.213 473.885 364C474.071 363.787 474.391 363.68 474.845 363.68H475.765C476.218 363.68 476.525 363.787 476.685 364C476.871 364.187 476.965 364.547 476.965 365.08V365.48C476.965 366.04 476.871 366.413 476.685 366.6C476.525 366.787 476.218 366.88 475.765 366.88H474.845C474.391 366.88 474.071 366.787 473.885 366.6C473.725 366.413 473.645 366.04 473.645 365.48V365.08Z" fill="black"/>
</svg>
