<svg width="306" height="76" viewBox="0 0 306 76" fill="none" xmlns="http://www.w3.org/2000/svg">
<path d="M53.6812 29.8719C53.4771 30.6689 53.2729 31.5145 53.0786 32.4184C52.8842 33.3223 52.6995 34.2845 52.5148 35.305C52.1066 33.2737 51.6012 31.4659 51.0083 29.8622L48.559 21.9214L37.1484 16.8965C37.3039 17.538 37.4692 18.1503 37.6247 18.7237C37.7802 19.3069 37.9551 19.8317 38.1398 20.3177L47.5093 51.206H57.9771L64.8099 29.0749L55.0127 24.7595L53.6714 29.8622L53.6812 29.8719Z" fill="#18A2DD"/>
<path d="M43.0098 3.87289C42.689 3.14393 42.2225 2.54133 41.6102 2.0748C40.9979 1.60827 40.1814 1.375 39.1803 1.375H35.7591C34.7969 1.375 33.9902 1.6277 33.3098 2.14283C32.6392 2.65796 32.2018 3.23141 31.9977 3.87289L26.9922 19.9779L37.1587 16.9066L48.5693 21.9315L43.0098 3.87289Z" fill="#067AB1"/>
<path d="M14.3457 3.87289C14.1416 3.12449 13.7043 2.51217 13.0336 2.05536C12.363 1.59855 11.5271 1.375 10.5163 1.375H0.796875L8.29054 25.6346L19.2054 22.3398L14.3457 3.87289Z" fill="#39B4A3"/>
<path d="M64.286 1.375C63.3238 1.375 62.5074 1.6277 61.827 2.12339C61.1467 2.6288 60.7093 3.20225 60.5246 3.86317L55.0234 24.7599L64.8206 29.0753L73.3834 1.375H64.286Z" fill="#5C5C89"/>
<path d="M23.9179 29.872C23.325 31.534 22.8196 33.439 22.4114 35.587C22.2073 34.5373 22.0032 33.5265 21.799 32.5643C21.5949 31.5923 21.3908 30.6981 21.1867 29.8817L19.204 22.3492L8.28906 25.644L16.1909 51.2255H26.6588L36.1643 20.3372C36.349 19.861 36.5142 19.3264 36.6795 18.7433C36.835 18.1601 37.0002 17.5478 37.1557 16.916L26.9892 19.9873L23.9179 29.8817V29.872Z" fill="#0EABBC"/>
<path d="M178.625 51.2161H188.821V22.3203L178.625 26.5774V51.2161Z" fill="#E37678"/>
<path d="M132.789 51.2159H142.985V26.2856L132.789 21.8633V51.2159Z" fill="#841450"/>
<path d="M148.195 28.5391L155.981 43.6527C156.389 44.4497 156.943 45.0523 157.643 45.4703C158.333 45.8785 159.13 46.0826 160.014 46.0826H161.589C162.473 46.0826 163.27 45.8785 163.96 45.4703C164.65 45.0621 165.214 44.4595 165.622 43.6527L173.301 28.7918L160.801 34.0014L148.195 28.5391Z" fill="#AF6FA0"/>
<path d="M179.991 1.375C179.485 1.375 179.048 1.38472 178.679 1.40416C178.3 1.4236 177.969 1.49163 177.668 1.60827C177.367 1.7249 177.104 1.89985 176.861 2.14283C176.618 2.38582 176.385 2.71628 176.161 3.15365L163.371 28.3269C162.894 29.1919 162.438 30.1056 162.02 31.0581C161.592 32.0203 161.193 33.002 160.805 34.0031L173.304 28.7935L178.863 18.0341C178.776 18.8311 178.708 19.6183 178.679 20.3959C178.65 21.1734 178.63 21.8927 178.63 22.5536V26.5774L188.826 22.33V1.375H180.001H179.991Z" fill="#DE5927"/>
<path d="M159.593 31.1358C159.175 30.2028 158.728 29.2989 158.281 28.4338L145.452 3.15365C145.218 2.71628 144.985 2.38582 144.752 2.14283C144.518 1.89985 144.246 1.7249 143.945 1.60827C143.644 1.49163 143.313 1.4236 142.934 1.40416C142.555 1.38472 142.118 1.375 141.622 1.375H132.797V21.8635L142.993 26.2761V22.5439C142.993 21.883 142.973 21.1637 142.925 20.3764C142.876 19.5892 142.827 18.7825 142.75 17.966L148.202 28.5407L160.808 34.0031C160.419 33.0214 160.021 32.0689 159.593 31.1261V31.1358Z" fill="#D64287"/>
<path d="M198.461 51.2145H230.545V42.3212H210.095V30.4441H225.753L198.461 21.9785V51.2145Z" fill="#DEAF47"/>
<path d="M210.095 21.9024V10.2683H230.545V1.375H198.461V21.9801L225.753 30.4458V21.9024H210.095Z" fill="#E27638"/>
<path d="M281.162 1.375H270.977V23.8949L281.162 22.4175V1.375Z" fill="#105B2A"/>
<path d="M237.656 51.2161H247.852V27.248L237.656 28.7254V51.2161Z" fill="#D2C020"/>
<path d="M247.586 3.15365C247.265 2.76488 246.983 2.45385 246.73 2.23031C246.478 2.00676 246.215 1.82209 245.943 1.69574C245.671 1.56939 245.36 1.48191 245.02 1.44304C244.68 1.39444 244.252 1.375 243.756 1.375H237.672V28.7254L247.868 27.2481V24.4975C247.868 23.7685 247.848 22.991 247.819 22.1551C247.79 21.3192 247.722 20.4639 247.634 19.5697L253.106 26.49L264.75 24.7988L247.605 3.15365H247.586Z" fill="#9C8B18"/>
<path d="M270.979 23.8934V27.7423C270.979 28.5392 270.999 29.3946 271.047 30.2887C271.096 31.1926 271.174 32.116 271.29 33.0782L264.73 24.7973L253.086 26.4884L271.115 49.2902C271.708 49.9997 272.311 50.4954 272.914 50.7773C273.516 51.0591 274.265 51.2049 275.149 51.2049H281.165V22.416L270.97 23.8934H270.979Z" fill="#5F6F27"/>
<path d="M82.063 31.6021C81.995 31.5632 81.9366 31.5146 81.8686 31.466C81.2757 30.9995 81.3632 30.2511 81.6451 29.4152C81.8006 28.9778 82.0047 28.5113 82.2088 28.0448C82.4226 27.5685 82.6267 27.0826 82.7531 26.6452C83.2099 24.9929 84.5803 22.3589 83.7445 21.1926C83.6181 21.2606 83.482 21.319 83.346 21.3578C83.2488 21.387 83.1516 21.3967 83.0544 21.3967C82.9183 21.3967 82.7725 21.3967 82.6364 21.3578C82.5392 21.3384 82.4518 21.2995 82.3643 21.2606C82.2379 21.1926 82.1213 21.1148 82.0047 21.0371C82.131 21.1051 82.2574 21.1732 82.3837 21.212C82.4712 21.2412 82.5587 21.2704 82.6462 21.2801C82.8017 21.2995 82.9572 21.2801 83.103 21.2412C83.1613 21.2218 83.2293 21.2218 83.2876 21.1926C83.3848 21.1537 83.4723 21.1051 83.5598 21.0468C83.4529 21.0565 83.3557 21.0662 83.2488 21.0468C83.2196 21.0468 83.2002 21.0371 83.1807 21.0274C82.9961 20.9982 82.8114 20.9399 82.6559 20.833C82.617 20.8038 82.5781 20.7649 82.5392 20.7358C82.4129 20.6289 82.3157 20.5025 82.2185 20.3664C82.3254 20.4831 82.4323 20.5997 82.549 20.6872C82.5878 20.7163 82.6364 20.7455 82.685 20.7649C82.8503 20.8524 83.0349 20.8913 83.2196 20.8816H83.239C83.3168 20.8816 83.4043 20.8621 83.482 20.8427C83.4237 20.7649 83.3654 20.6775 83.3168 20.5997C83.1321 20.3179 82.9961 20.0554 82.8989 19.7638C82.6948 19.1904 82.6073 18.5198 82.3351 17.3923C82.2282 16.9647 82.1602 16.3329 82.1019 15.6137C82.0727 15.2443 82.0533 14.8458 82.0338 14.4376C81.9561 12.5423 81.9852 10.4235 82.0047 9.53903C82.0047 9.2766 82.0047 9.13081 82.0047 9.12109C77.5338 13.7281 74.7734 20.0068 74.7734 26.9368C74.7734 28.6182 74.9387 30.2511 75.2497 31.8354L83.6084 32.0881C83.3751 32.0589 83.1224 32.0103 82.8794 31.9325C82.5976 31.8451 82.3157 31.7284 82.0533 31.5535L82.063 31.6021Z" fill="#703A85"/>
<path d="M98.6719 52.5171C99.5077 51.9145 100.256 51.3897 100.907 50.9037C101.063 50.7871 101.209 50.6607 101.354 50.5246C101.811 50.097 102.2 49.6207 102.501 49.0959C102.637 48.8529 102.764 48.6099 102.871 48.3572C103.221 47.5019 103.376 46.5786 103.318 45.6649C103.308 45.4317 103.279 45.1984 103.23 44.9749C103.046 43.9543 102.569 42.9727 101.811 42.1659C101.763 42.1173 101.714 42.059 101.665 42.0007C101.481 41.816 101.286 41.6605 101.092 41.5147C100.451 41.0579 99.7702 40.8344 99.1093 40.8538C99.8965 40.2318 100.655 39.5806 101.374 38.8808C101.539 38.7253 101.695 38.5698 101.85 38.4045C101.947 38.3073 102.035 38.2004 102.132 38.0935C102.754 37.4132 103.327 36.6745 103.745 35.8483C103.979 35.3721 104.154 34.857 104.202 34.3224C104.261 33.7878 104.124 33.2532 103.852 32.7964C104.095 33.263 104.202 33.7975 104.124 34.3127C104.056 34.8278 103.862 35.3138 103.6 35.7706C103.084 36.6648 102.394 37.4423 101.646 38.1518L101.627 38.1713C101.354 38.424 101.073 38.667 100.791 38.9002C99.7896 39.7555 98.7205 40.5234 97.6222 41.2426C97.3598 41.4176 97.0973 41.5828 96.8349 41.748C96.8252 41.748 96.8057 41.7577 96.796 41.7675C95.8241 42.3117 94.8716 42.9046 93.6081 43.5267C93.472 43.5947 93.3456 43.6433 93.2096 43.6919C92.7722 43.8377 92.3251 43.8863 91.9072 43.8474C90.8089 43.7405 89.8467 43.0893 89.3607 42.302C89.3315 42.2437 89.2926 42.1951 89.2635 42.1368C89.0983 41.816 88.9913 41.4564 88.933 41.1065C88.7484 40.0957 88.865 39.0946 88.6512 38.8516C88.3693 38.5212 87.6695 38.3268 87.1447 37.6367C86.717 37.073 87.1252 36.4898 87.3196 36.2177C87.4946 36.1399 87.7473 36.0038 88.0097 35.8483C88.2138 35.7317 88.4276 35.6151 88.6123 35.4984C88.797 35.3915 88.9525 35.2943 89.0691 35.2263C88.9427 35.2846 88.7581 35.3526 88.554 35.4207C88.3304 35.4887 88.0874 35.5665 87.8542 35.6345C87.5626 35.722 87.2904 35.7997 87.1155 35.8581C86.8239 35.8581 86.406 35.9358 86.0075 35.6053C85.4438 35.1291 85.4729 34.5265 85.5993 33.9433C85.7256 33.3602 85.6965 32.6118 85.2494 32.3396C84.9967 32.1841 84.3552 32.2327 83.6165 32.1355L75.2578 31.8828C77.435 43.1282 86.9794 51.7396 98.6622 52.5171H98.6719Z" fill="#703A85"/>
<path d="M119.715 10.1895L115.342 15.4185C117.82 18.6162 119.297 22.6303 119.297 26.9846C119.297 29.7546 118.695 32.3886 117.616 34.7601C117.635 35.0614 117.635 35.353 117.635 35.6543C117.635 37.3455 117.422 38.9978 117.072 40.5529C116.965 41.0583 116.838 41.554 116.702 42.04C116.314 43.4201 115.857 44.6934 115.4 45.8014C114.924 46.9483 114.457 47.9105 114.078 48.62C121.232 44.081 125.984 36.0917 125.984 26.9943C125.984 20.5698 123.613 14.6993 119.696 10.1992L119.715 10.1895ZM119.978 38.9783C119.822 39.0658 119.647 39.1144 119.463 39.1144C119.317 39.1144 119.171 39.0853 119.045 39.0269C118.821 38.9395 118.637 38.7742 118.52 38.5701C118.423 38.4049 118.364 38.2202 118.364 38.0161C118.364 37.7343 118.471 37.4718 118.646 37.2774C118.85 37.0539 119.142 36.9081 119.463 36.9081C119.463 36.9081 119.472 36.9081 119.482 36.9081C121.037 33.934 121.922 30.5613 121.922 26.9846C121.922 23.6022 121.134 20.4046 119.735 17.547C119.647 17.5665 119.56 17.5859 119.463 17.5859C119.103 17.5859 118.782 17.411 118.578 17.1388C118.442 16.9542 118.355 16.7306 118.355 16.4876C118.355 16.1766 118.491 15.8947 118.695 15.6906C118.86 15.5254 119.084 15.4282 119.327 15.3991C119.365 15.3991 119.404 15.3893 119.453 15.3893C119.89 15.3893 120.269 15.642 120.444 16.0114C120.512 16.1572 120.561 16.3127 120.561 16.4876C120.561 16.7501 120.464 16.9833 120.318 17.1777C121.786 20.1421 122.612 23.4662 122.612 26.9943C122.612 30.5225 121.718 34.1089 120.143 37.1608C120.396 37.3649 120.571 37.6759 120.571 38.0258C120.571 38.4438 120.328 38.8131 119.988 38.9978L119.978 38.9783Z" fill="#47243C"/>
<path d="M100.398 1.375C93.5555 1.375 87.3448 4.06728 82.7475 8.44101H82.7281L82.7087 8.47989C82.6892 8.49933 82.6601 8.51877 82.6406 8.54792C82.6406 8.54792 82.6503 8.55764 82.6601 8.56736C83.4085 9.47127 84.1957 10.278 85.0122 10.9875C85.1871 11.143 85.3718 11.2888 85.5467 11.4346C86.1688 11.94 86.8005 12.3968 87.4517 12.8245C87.5392 12.8828 87.617 12.9314 87.7044 12.9897C90.2023 10.7251 93.3028 9.12137 96.7338 8.44101C96.7338 8.44101 96.7338 8.44101 96.7338 8.43129C96.7338 7.81897 97.2295 7.333 97.8321 7.333C97.8515 7.333 97.8612 7.333 97.8807 7.333C98.3666 7.35244 98.7749 7.69262 98.9012 8.14943C98.9206 8.2369 98.9401 8.3341 98.9401 8.43129C98.9401 8.57708 98.9109 8.72287 98.8526 8.84923C98.7165 9.17969 98.4347 9.42267 98.0848 9.50043C98.007 9.51987 97.9195 9.52958 97.8321 9.52958C97.4822 9.52958 97.1711 9.36435 96.967 9.10193C93.6916 9.73369 90.7272 11.2305 88.3265 13.359C88.6472 13.5437 88.9777 13.7284 89.3081 13.9033C89.9399 14.2338 90.5717 14.5351 91.2229 14.8072C91.4756 14.9141 91.7186 15.0211 91.9713 15.1182C92.7974 15.4487 93.643 15.7597 94.4983 16.0416C94.7121 16.1096 94.9162 16.1777 95.1301 16.2457C96.7143 15.4584 98.5027 15.0211 100.388 15.0211C101.205 15.0211 101.992 15.0988 102.76 15.2543C102.954 14.9239 103.304 14.7003 103.712 14.7003C104.325 14.7003 104.811 15.196 104.811 15.7986C104.811 15.818 104.811 15.8375 104.811 15.8666C107.289 16.858 109.369 18.6658 110.701 20.9499L112.45 18.8602C109.836 14.9822 105.403 12.426 100.388 12.426C99.5038 12.426 98.6388 12.5134 97.8029 12.6592C97.7154 13.116 97.3364 13.4659 96.8698 13.534C96.8212 13.534 96.7727 13.5534 96.7143 13.5534C96.3742 13.5534 96.0729 13.3979 95.8687 13.1452C95.723 12.9703 95.6258 12.7467 95.616 12.494C95.616 12.4746 95.616 12.4648 95.616 12.4454C95.616 11.9497 95.9465 11.5318 96.4033 11.3957C96.5005 11.3666 96.6074 11.3471 96.7143 11.3471C97.1517 11.3471 97.5308 11.5998 97.7057 11.9692C98.5805 11.8136 99.4747 11.7262 100.388 11.7262C105.578 11.7262 110.166 14.331 112.917 18.3062L114.88 15.9638C112.518 12.8633 109.194 10.5501 105.345 9.46155C105.19 9.86976 104.791 10.1711 104.315 10.1711C104.218 10.1711 104.13 10.1516 104.043 10.1322C103.567 10.0058 103.217 9.57818 103.217 9.07277C103.217 9.04361 103.217 9.02418 103.217 8.99502C103.236 8.74231 103.333 8.51877 103.489 8.3341C103.693 8.11055 103.984 7.96476 104.305 7.96476C104.383 7.96476 104.451 7.96476 104.529 7.9842C104.927 8.06195 105.238 8.36326 105.355 8.74231C109.359 9.84061 112.839 12.2219 115.327 15.4195L119.701 10.1905C115.016 4.79623 108.105 1.375 100.398 1.375ZM117.349 12.6398C117.232 12.8439 117.047 13.0091 116.824 13.0966C116.697 13.1549 116.552 13.1841 116.406 13.1841C116.095 13.1841 115.813 13.0577 115.619 12.8536C115.424 12.6592 115.308 12.3871 115.308 12.0858C115.308 11.9108 115.356 11.7456 115.424 11.5998C111.546 7.80925 106.239 5.46687 100.408 5.46687C96.7921 5.46687 93.3806 6.37078 90.3773 7.95504C90.3773 7.95504 90.3773 7.95504 90.3773 7.96476C90.3773 8.35354 90.1732 8.69372 89.8622 8.89782C89.6872 9.00474 89.4928 9.07277 89.2693 9.07277C89.0749 9.07277 88.8902 9.01446 88.725 8.92698C88.5209 8.81035 88.3459 8.62568 88.2487 8.40213C88.1904 8.26606 88.1613 8.12027 88.1613 7.97448C88.1613 7.62458 88.3265 7.31356 88.5889 7.10945C88.7736 6.96366 89.0068 6.87619 89.2595 6.87619C89.6094 6.87619 89.9302 7.04142 90.1246 7.30384C93.1959 5.70014 96.6852 4.78651 100.388 4.78651C106.414 4.78651 111.896 7.20665 115.9 11.1236C116.046 11.0458 116.211 11.0069 116.396 11.0069C116.834 11.0069 117.213 11.2596 117.388 11.629C117.456 11.7748 117.504 11.9303 117.504 12.1052C117.504 12.3093 117.446 12.5037 117.349 12.669V12.6398Z" fill="#841450"/>
<path d="M114.55 21.3085C114.987 21.4543 115.299 21.8625 115.299 22.3485C115.299 22.4068 115.299 22.4651 115.279 22.5234C115.25 22.6887 115.192 22.8345 115.104 22.9705C114.958 23.1746 114.754 23.3302 114.502 23.4079C114.404 23.4371 114.297 23.4565 114.19 23.4565C113.782 23.4565 113.432 23.233 113.248 22.9122C113.151 22.747 113.092 22.5623 113.092 22.3485C113.092 21.8722 113.393 21.4738 113.802 21.3182C113.432 20.4532 112.976 19.6368 112.46 18.8592L110.711 20.9489C111.177 21.7362 111.557 22.5818 111.829 23.4759C111.848 23.4954 111.877 23.5148 111.897 23.5343C112.47 24.0202 113.034 24.5451 113.588 25.1185C114.103 25.6531 114.55 26.1974 114.949 26.7611C115.192 27.1013 115.415 27.4512 115.629 27.8011C115.853 28.1801 116.057 28.5689 116.241 28.9577C116.902 30.3573 117.291 31.8055 117.495 33.2634C118.224 31.3001 118.623 29.1812 118.623 26.9652C118.623 22.8247 117.233 19.0147 114.9 15.9531L112.937 18.2955C113.578 19.2286 114.132 20.2297 114.56 21.2988L114.55 21.3085Z" fill="#47243C"/>
<path d="M104.56 16.5275C104.355 16.7704 104.054 16.926 103.724 16.926C103.16 16.926 102.703 16.4983 102.635 15.954C101.916 15.8082 101.167 15.7305 100.4 15.7305C98.8931 15.7305 97.4449 16.0318 96.1328 16.5761C98.2711 17.237 100.448 17.8396 102.587 18.5783C103.306 18.8212 104.015 19.0837 104.715 19.3655C106.474 20.0653 108.185 20.9304 109.827 22.0286L110.236 21.5427C108.982 19.2878 106.98 17.4994 104.56 16.5372V16.5275Z" fill="#841450"/>
<path d="M110.8 22.6703C110.635 22.2718 110.45 21.8928 110.236 21.5234L109.828 22.0094C110.149 22.2232 110.479 22.4371 110.79 22.6703H110.8Z" fill="#47243C"/>
<path d="M91.0257 20.7642C90.8313 20.6281 90.6564 20.4823 90.4717 20.3462C89.7622 19.7922 89.111 19.2091 88.5181 18.6065C88.3529 18.4412 88.1876 18.2663 88.0321 18.0913C87.3129 17.3138 86.6714 16.5071 86.1174 15.7101C85.9716 15.506 85.8355 15.3019 85.7092 15.1075C85.1649 14.2716 84.7081 13.4649 84.3193 12.7068C84.2027 12.4735 84.086 12.25 83.9888 12.0361C83.1335 10.2381 82.7448 8.88705 82.6573 8.58575C82.6573 8.57603 82.6573 8.55659 82.6573 8.54688C82.4532 8.74126 82.2588 8.95509 82.0547 9.1592C82.0838 9.25639 82.1033 9.34387 82.1324 9.44106C82.4629 10.6754 82.8322 11.8223 83.2599 12.9012C83.3571 13.1539 83.4543 13.3969 83.5612 13.6398C83.9597 14.5632 84.3971 15.4282 84.883 16.2349C85.0094 16.4488 85.1455 16.6626 85.2815 16.8764C85.8647 17.7609 86.5159 18.5773 87.2449 19.3257C87.4101 19.5006 87.585 19.6659 87.76 19.8311C88.3917 20.424 89.0721 20.978 89.8108 21.4931C90.0052 21.6292 90.1996 21.7556 90.3939 21.8819C92.7363 23.3787 95.6522 24.5547 99.3261 25.5267C101.319 26.0515 103.049 27.0915 104.468 28.4619L105.751 26.9263C103.301 25.4781 100.454 24.477 97.3919 23.7092C94.9038 23.0871 92.8044 22.0374 91.0354 20.7642H91.0257Z" fill="#703A85"/>
<path d="M108.111 35.1678C108.169 35.4303 108.218 35.7024 108.257 35.9746C108.412 36.9854 108.471 38.0448 108.412 39.1236C108.393 39.4152 108.374 39.7068 108.344 39.9984C108.208 41.2328 107.926 42.4963 107.489 43.7598C107.392 44.0514 107.275 44.343 107.159 44.6345C106.721 45.7231 106.177 46.8117 105.487 47.8905C105.312 48.1724 105.118 48.4543 104.923 48.7361C104.67 49.0958 104.408 49.4554 104.126 49.815C103.98 49.9899 103.825 50.1746 103.66 50.3496C102.97 51.098 102.075 51.8269 101.094 52.5656C101.57 52.5559 102.056 52.5267 102.523 52.4878C103.047 52.0019 103.582 51.4964 104.126 50.9619C104.359 50.7286 104.583 50.4954 104.797 50.2621C105.37 49.64 105.885 49.018 106.333 48.3862C106.546 48.0849 106.76 47.7836 106.945 47.4823C107.693 46.316 108.238 45.1497 108.636 44.0028C108.743 43.6918 108.84 43.3807 108.918 43.0794C109.277 41.7576 109.443 40.4649 109.472 39.2403C109.472 38.9487 109.472 38.6571 109.472 38.3655C109.433 37.2575 109.277 36.1981 109.064 35.2262C109.005 34.954 108.937 34.6819 108.869 34.4194C107.926 30.9205 106.245 28.6072 106.245 28.6072C106.245 28.6072 108.257 29.8708 110.045 32.8255C110.181 33.0393 110.308 33.2628 110.434 33.5058C110.871 34.3125 111.289 35.2262 111.639 36.2467C111.727 36.4994 111.814 36.7521 111.892 37.0145C112.213 38.0642 112.456 39.2208 112.621 40.4941C112.66 40.7662 112.689 41.0481 112.708 41.3299C112.796 42.3408 112.835 43.4196 112.786 44.5762C112.776 44.8678 112.757 45.1594 112.738 45.4607C112.689 46.1994 112.611 46.9672 112.504 47.7642C112.417 48.4057 112.3 49.0666 112.164 49.7372C112.611 49.504 113.049 49.2707 113.476 49.0083C113.573 48.2988 113.661 47.6087 113.729 46.938C113.807 46.1411 113.855 45.3732 113.894 44.6345C113.904 44.3332 113.923 44.0222 113.933 43.7209C113.953 42.5157 113.904 41.3883 113.807 40.3288C113.778 40.0275 113.748 39.7165 113.71 39.4249C113.535 38.0837 113.262 36.859 112.903 35.7316C112.815 35.4497 112.718 35.1776 112.621 34.9151C112.232 33.8849 111.766 32.9518 111.231 32.0965C111.085 31.8632 110.93 31.6397 110.774 31.4161C109.443 29.5306 107.722 28.0921 105.759 26.9258L104.476 28.4614C106.284 30.2109 107.577 32.5339 108.131 35.1776L108.111 35.1678Z" fill="#47243C"/>
<path d="M20.0388 74.9014C18.9211 74.4446 18.0269 73.7643 17.3563 72.8701C16.6857 71.9759 16.3358 70.8873 16.2969 69.6238H21.3024C21.3801 70.343 21.6231 70.8873 22.041 71.2566C22.459 71.6357 23.013 71.8204 23.6933 71.8204C24.3737 71.8204 24.9374 71.6649 25.3456 71.3344C25.7441 71.0137 25.9483 70.5666 25.9483 70.0028C25.9483 69.5266 25.783 69.1281 25.4623 68.8171C25.1415 68.506 24.743 68.2533 24.2765 68.0492C23.81 67.8451 23.1393 67.6216 22.284 67.3592C21.0399 66.9704 20.0194 66.5913 19.2321 66.2026C18.4449 65.8138 17.7645 65.25 17.2008 64.5017C16.6273 63.7533 16.3455 62.7716 16.3455 61.5567C16.3455 59.7586 16.9967 58.3493 18.2991 57.3384C19.6015 56.3179 21.2927 55.8125 23.392 55.8125C25.4914 55.8125 27.2312 56.3179 28.5336 57.3384C29.836 58.359 30.5358 59.7683 30.6233 61.5858H25.5303C25.4914 60.9638 25.2679 60.4681 24.8402 60.1182C24.4223 59.7586 23.878 59.5836 23.2171 59.5836C22.6437 59.5836 22.1868 59.7391 21.8369 60.0404C21.487 60.3417 21.3121 60.7791 21.3121 61.3428C21.3121 61.9649 21.6037 62.4509 22.1966 62.8008C22.7797 63.1507 23.7031 63.5297 24.9472 63.9282C26.1912 64.3461 27.2118 64.7544 27.9893 65.1431C28.7669 65.5319 29.4472 66.0859 30.011 66.8246C30.5747 67.5535 30.8663 68.506 30.8663 69.6627C30.8663 70.8193 30.5844 71.7621 30.0304 72.6562C29.4667 73.5504 28.66 74.2697 27.6006 74.8042C26.5411 75.3388 25.2776 75.6012 23.8294 75.6012C22.3812 75.6012 21.1566 75.368 20.0291 74.9111L20.0388 74.9014Z" fill="#202121"/>
<path d="M47.6556 56.084V59.8551H42.5432V75.3965H37.839V59.8551H32.7266V56.084H47.6653H47.6556Z" fill="#202121"/>
<path d="M62.0383 71.9849H54.8265L53.6699 75.3965H48.7422L55.7304 56.084H61.1733L68.1616 75.3965H63.1852L62.0286 71.9849H62.0383ZM60.8234 68.3499L58.4324 61.2839L56.0706 68.3499H60.8331H60.8234Z" fill="#202121"/>
<path d="M80.1348 75.3965L76.1207 68.1069H74.9933V75.3965H70.2891V56.084H78.1812C79.7072 56.084 80.9999 56.3464 82.069 56.881C83.1381 57.4155 83.9448 58.1445 84.4794 59.0678C85.014 59.9912 85.2764 61.0214 85.2764 62.1586C85.2764 63.4416 84.9168 64.5885 84.1878 65.5993C83.4589 66.6101 82.3995 67.3196 80.9804 67.7473L85.4319 75.3965H80.1251H80.1348ZM74.9933 64.7829H77.9091C78.7741 64.7829 79.4156 64.569 79.853 64.1511C80.2806 63.7332 80.5042 63.1306 80.5042 62.3627C80.5042 61.5949 80.2903 61.0506 79.853 60.6327C79.4253 60.2147 78.7741 60.0009 77.9091 60.0009H74.9933V64.7829Z" fill="#202121"/>
<path d="M102.124 56.084V59.8551H97.0119V75.3965H92.3077V59.8551H87.1953V56.084H102.134H102.124Z" fill="#202121"/>
<path d="M109.109 56.084V67.6404C109.109 68.797 109.39 69.6814 109.964 70.3132C110.528 70.9352 111.363 71.2463 112.471 71.2463C113.579 71.2463 114.415 70.9352 114.999 70.3132C115.582 69.6912 115.883 68.797 115.883 67.6404V56.084H120.587V67.6112C120.587 69.3315 120.218 70.7895 119.489 71.9849C118.76 73.1804 117.769 74.0746 116.534 74.6772C115.3 75.2798 113.92 75.5811 112.394 75.5811C110.868 75.5811 109.507 75.2798 108.312 74.6869C107.106 74.094 106.164 73.1901 105.464 71.9947C104.764 70.7895 104.414 69.3315 104.414 67.6112V56.084H109.118H109.109Z" fill="#202121"/>
<path d="M137.822 65.366C137.307 66.2894 136.52 67.0378 135.461 67.6112C134.401 68.1846 133.079 68.4665 131.495 68.4665H128.579V75.3965H123.875V56.084H131.495C133.031 56.084 134.333 56.3464 135.402 56.881C136.462 57.4155 137.259 58.1445 137.793 59.0776C138.328 60.0106 138.59 61.0895 138.59 62.2947C138.59 63.4124 138.337 64.433 137.822 65.366ZM133.147 64.0831C133.585 63.6651 133.808 63.0625 133.808 62.2947C133.808 61.5269 133.585 60.9242 133.147 60.5063C132.71 60.0884 132.039 59.8746 131.135 59.8746H128.579V64.7148H131.135C132.03 64.7148 132.7 64.501 133.147 64.0831Z" fill="#202121"/>
<path d="M150.07 74.9014C148.952 74.4446 148.058 73.7643 147.388 72.8701C146.717 71.9759 146.367 70.8873 146.328 69.6238H151.334C151.411 70.343 151.654 70.8873 152.072 71.2566C152.49 71.6357 153.044 71.8204 153.725 71.8204C154.405 71.8204 154.969 71.6649 155.377 71.3344C155.775 71.0137 155.98 70.5666 155.98 70.0028C155.98 69.5266 155.814 69.1281 155.494 68.8171C155.173 68.506 154.774 68.2533 154.308 68.0492C153.841 67.8451 153.171 67.6216 152.315 67.3592C151.071 66.9704 150.051 66.5913 149.263 66.2026C148.476 65.8138 147.796 65.25 147.232 64.5017C146.659 63.7533 146.377 62.7716 146.377 61.5567C146.377 59.7586 147.028 58.3493 148.33 57.3384C149.633 56.3179 151.324 55.8125 153.423 55.8125C155.523 55.8125 157.262 56.3179 158.565 57.3384C159.867 58.359 160.567 59.7683 160.655 61.5858H155.562C155.523 60.9638 155.299 60.4681 154.871 60.1182C154.454 59.7586 153.909 59.5836 153.248 59.5836C152.675 59.5836 152.218 59.7391 151.868 60.0404C151.518 60.3417 151.343 60.7791 151.343 61.3428C151.343 61.9649 151.635 62.4509 152.228 62.8008C152.811 63.1507 153.734 63.5297 154.978 63.9282C156.222 64.3461 157.243 64.7544 158.021 65.1431C158.798 65.5319 159.478 66.0859 160.042 66.8246C160.606 67.5535 160.898 68.506 160.898 69.6627C160.898 70.8193 160.616 71.7621 160.062 72.6562C159.498 73.5504 158.691 74.2697 157.632 74.8042C156.572 75.3388 155.309 75.6012 153.861 75.6012C152.412 75.6012 151.188 75.368 150.06 74.9111L150.07 74.9014Z" fill="#202121"/>
<path d="M168.405 56.084V67.6404C168.405 68.797 168.687 69.6814 169.261 70.3132C169.824 70.9352 170.66 71.2463 171.768 71.2463C172.876 71.2463 173.712 70.9352 174.295 70.3132C174.879 69.6912 175.18 68.797 175.18 67.6404V56.084H179.884V67.6112C179.884 69.3315 179.515 70.7895 178.786 71.9849C178.057 73.1804 177.065 74.0746 175.831 74.6772C174.597 75.2798 173.217 75.5811 171.691 75.5811C170.165 75.5811 168.804 75.2798 167.608 74.6869C166.403 74.094 165.46 73.1901 164.761 71.9947C164.061 70.7895 163.711 69.3315 163.711 67.6112V56.084H168.415H168.405Z" fill="#202121"/>
<path d="M205.048 56.084V75.3965H200.344V63.8206L196.029 75.3965H192.228L187.884 63.7915V75.3965H183.18V56.084H188.739L194.163 69.4482L199.528 56.084H205.058H205.048Z" fill="#202121"/>
<path d="M230.298 56.084V75.3965H225.594V63.8206L221.279 75.3965H217.478L213.134 63.7915V75.3965H208.43V56.084H213.989L219.413 69.4482L224.778 56.084H230.308H230.298Z" fill="#202121"/>
<path d="M238.392 56.084V75.3965H233.688V56.084H238.392Z" fill="#202121"/>
<path d="M255.687 56.084V59.8551H250.574V75.3965H245.87V59.8551H240.758V56.084H255.697H255.687Z" fill="#202121"/>
<path d="M277.557 59.4081H268.975V63.2084C269.344 62.8099 269.859 62.4794 270.51 62.217C271.171 61.9643 271.891 61.8282 272.658 61.8282C274.029 61.8282 275.176 62.1392 276.08 62.7613C276.984 63.3833 277.654 64.19 278.072 65.1814C278.49 66.1728 278.704 67.2419 278.704 68.3985C278.704 70.5465 278.101 72.2474 276.886 73.5012C275.671 74.755 273.971 75.3868 271.774 75.3868C270.306 75.3868 269.033 75.1341 267.954 74.6287C266.875 74.1233 266.04 73.4235 265.447 72.5196C264.863 71.6254 264.543 70.5854 264.484 69.4094H269.082C269.189 69.9828 269.461 70.4493 269.879 70.8284C270.297 71.2075 270.88 71.3921 271.609 71.3921C272.474 71.3921 273.115 71.12 273.533 70.566C273.951 70.012 274.165 69.283 274.165 68.3694C274.165 67.4558 273.941 66.7851 273.504 66.3089C273.067 65.8326 272.425 65.5896 271.58 65.5896C270.958 65.5896 270.442 65.7451 270.044 66.0464C269.636 66.3477 269.373 66.7462 269.247 67.2419H264.708V55.2773H277.557V59.4081Z" fill="#202121"/>
<path d="M281.951 74.8815C281.426 74.3955 281.164 73.7929 281.164 73.0834C281.164 72.3739 281.426 71.7324 281.951 71.2367C282.476 70.741 283.147 70.498 283.973 70.498C284.799 70.498 285.441 70.741 285.965 71.2367C286.49 71.7324 286.753 72.3447 286.753 73.0834C286.753 73.8221 286.49 74.3955 285.965 74.8815C285.441 75.3675 284.78 75.6105 283.973 75.6105C283.166 75.6105 282.476 75.3675 281.951 74.8815Z" fill="#202121"/>
<path d="M290.882 57.6199C292.097 55.8023 294.07 54.8984 296.782 54.8984C299.493 54.8984 301.466 55.8023 302.681 57.6199C303.896 59.4374 304.509 61.9158 304.509 65.0747C304.509 68.2335 303.896 70.7702 302.681 72.5878C301.457 74.4053 299.493 75.3092 296.782 75.3092C294.07 75.3092 292.097 74.4053 290.882 72.5878C289.667 70.7702 289.055 68.2723 289.055 65.0747C289.055 61.877 289.667 59.4374 290.882 57.6199ZM299.289 60.7981C298.881 59.797 298.055 59.3013 296.782 59.3013C295.508 59.3013 294.682 59.797 294.274 60.7981C293.866 61.7992 293.671 63.228 293.671 65.0747C293.671 66.3187 293.749 67.349 293.895 68.1654C294.041 68.9819 294.342 69.6428 294.789 70.1482C295.236 70.6536 295.907 70.9063 296.782 70.9063C297.656 70.9063 298.327 70.6536 298.774 70.1482C299.221 69.6428 299.523 68.9819 299.668 68.1654C299.814 67.349 299.892 66.3187 299.892 65.0747C299.892 63.2183 299.688 61.7992 299.289 60.7981Z" fill="#202121"/>
<path d="M301.701 50.7638C300.525 49.3448 299.563 48.2173 298.805 47.4009C298.047 46.5844 297.259 45.8846 296.433 45.3209C295.607 44.7572 294.8 44.4753 294.013 44.4753C293.42 44.4753 292.954 44.6114 292.614 44.8933C292.283 45.1654 292.108 45.5833 292.108 46.1373C292.108 46.6914 292.312 47.119 292.73 47.43C293.148 47.7411 293.731 47.8966 294.48 47.8966V51.4927C293.245 51.4636 292.215 51.2012 291.389 50.6958C290.563 50.1903 289.95 49.5294 289.562 48.713C289.173 47.8966 288.969 46.9829 288.969 45.9818C288.969 44.2518 289.416 42.9494 290.3 42.0746C291.185 41.1999 292.341 40.7528 293.77 40.7528C295.325 40.7528 296.764 41.2874 298.095 42.3468C299.427 43.4062 300.72 44.7572 301.983 46.3998V40.5195H305.015V51.4636H302.245C301.857 50.9679 301.672 50.7443 301.701 50.7832V50.7638Z" fill="#202121"/>
<path d="M291.056 37.7045C289.618 36.7423 288.898 35.1775 288.898 33.0295C288.898 30.8815 289.618 29.3167 291.056 28.3544C292.495 27.3922 294.468 26.9062 296.966 26.9062C299.463 26.9062 301.475 27.3922 302.914 28.3544C304.352 29.3167 305.072 30.8815 305.072 33.0295C305.072 35.1775 304.352 36.7423 302.914 37.7045C301.475 38.6667 299.493 39.1527 296.966 39.1527C294.438 39.1527 292.495 38.6667 291.056 37.7045ZM293.573 31.0467C292.786 31.3675 292.388 32.0284 292.388 33.0295C292.388 34.0306 292.786 34.6915 293.573 35.0122C294.361 35.333 295.498 35.4885 296.966 35.4885C297.957 35.4885 298.773 35.4302 299.415 35.3135C300.066 35.1969 300.581 34.9636 300.98 34.604C301.378 34.2444 301.582 33.7196 301.582 33.0198C301.582 32.32 301.378 31.7951 300.98 31.4355C300.581 31.0759 300.056 30.8426 299.415 30.726C298.773 30.6093 297.947 30.551 296.966 30.551C295.498 30.551 294.37 30.7065 293.573 31.0273V31.0467Z" fill="#202121"/>
<path d="M301.701 24.7755C300.525 23.3565 299.563 22.229 298.805 21.4126C298.047 20.5962 297.259 19.8964 296.433 19.3326C295.607 18.7689 294.8 18.4871 294.013 18.4871C293.42 18.4871 292.954 18.6231 292.614 18.905C292.283 19.1771 292.108 19.5951 292.108 20.1491C292.108 20.7031 292.312 21.1307 292.73 21.4417C293.148 21.7528 293.731 21.9083 294.48 21.9083V25.5045C293.245 25.4753 292.215 25.2129 291.389 24.7075C290.563 24.2021 289.95 23.5411 289.562 22.7247C289.173 21.9083 288.969 20.9947 288.969 19.9936C288.969 18.2635 289.416 16.9611 290.3 16.0864C291.185 15.2116 292.341 14.7645 293.77 14.7645C295.325 14.7645 296.764 15.2991 298.095 16.3585C299.427 17.4179 300.72 18.7689 301.983 20.4115V14.5312H305.015V25.4753H302.245C301.857 24.9796 301.672 24.7561 301.701 24.7949V24.7755Z" fill="#202121"/>
<path d="M302.127 13.1768H299.049L288.969 6.12944L288.969 1.86977L298.826 1.86977V0.0410156L302.127 0.0410157V1.86977H305.026V5.6834H302.127V13.1768ZM293.162 5.41578L298.826 9.1625V5.41578H293.162Z" fill="#202121"/>
</svg>
