<svg width="611" height="456" viewBox="0 0 611 456" fill="none" xmlns="http://www.w3.org/2000/svg">
<path d="M31.35 38C31.0933 38 30.9183 37.9533 30.825 37.86C30.7317 37.7433 30.685 37.5567 30.685 37.3V13.85C30.685 13.5933 30.7317 13.4183 30.825 13.325C30.9183 13.2083 31.0933 13.15 31.35 13.15H32.54C32.7967 13.15 32.9717 13.2083 33.065 13.325C33.1583 13.4183 33.205 13.5933 33.205 13.85V37.3C33.205 37.5567 33.1583 37.7433 33.065 37.86C32.9717 37.9533 32.7967 38 32.54 38H31.35ZM39.6434 38C39.41 38 39.2467 37.9533 39.1534 37.86C39.06 37.7667 39.0134 37.6033 39.0134 37.37V22.6C39.0134 22.0633 39.095 21.6667 39.2584 21.41C39.445 21.1533 39.8067 20.9083 40.3434 20.675C42.28 19.8817 44.45 19.485 46.8534 19.485C49.21 19.485 50.96 20.08 52.1034 21.27C53.2467 22.4367 53.8184 24.1283 53.8184 26.345V37.37C53.8184 37.6033 53.7717 37.7667 53.6784 37.86C53.585 37.9533 53.4217 38 53.1884 38H52.1034C51.87 38 51.7067 37.9533 51.6134 37.86C51.52 37.7667 51.4734 37.6033 51.4734 37.37V26.415C51.4734 24.8283 51.0767 23.6383 50.2834 22.845C49.49 22.0283 48.2534 21.62 46.5734 21.62C44.94 21.62 43.3884 21.8883 41.9184 22.425C41.685 22.5183 41.5334 22.635 41.4634 22.775C41.3934 22.915 41.3584 23.09 41.3584 23.3V37.37C41.3584 37.6033 41.3117 37.7667 41.2184 37.86C41.1484 37.9533 40.985 38 40.7284 38H39.6434ZM65.7602 38.49C61.8635 38.49 59.3552 37.0433 58.2352 34.15C58.1885 34.0567 58.1652 33.94 58.1652 33.8C58.1652 33.5667 58.3169 33.4033 58.6202 33.31L59.5302 32.995L59.8452 32.925C60.0552 32.925 60.2302 33.0767 60.3702 33.38C60.7669 34.4533 61.4085 35.235 62.2952 35.725C63.1819 36.1917 64.3252 36.425 65.7252 36.425C67.3819 36.425 68.6185 36.1567 69.4352 35.62C70.2519 35.06 70.6602 34.2667 70.6602 33.24C70.6602 32.4467 70.4502 31.84 70.0302 31.42C69.6335 30.9767 69.0852 30.6617 68.3852 30.475C67.7085 30.2883 66.7752 30.1367 65.5852 30.02C64.0685 29.88 62.8319 29.6817 61.8752 29.425C60.9185 29.145 60.1135 28.6433 59.4602 27.92C58.8302 27.1733 58.5152 26.1117 58.5152 24.735C58.5152 23.1017 59.0985 21.8183 60.2652 20.885C61.4552 19.9517 63.1702 19.485 65.4102 19.485C69.0502 19.485 71.4302 20.7567 72.5502 23.3C72.6202 23.44 72.6552 23.5683 72.6552 23.685C72.6552 23.9183 72.5152 24.0933 72.2352 24.21L71.3602 24.595C71.1969 24.665 71.0685 24.7 70.9752 24.7C70.8819 24.7 70.7885 24.665 70.6952 24.595C70.6252 24.5017 70.5552 24.3967 70.4852 24.28C70.0885 23.3933 69.5052 22.7283 68.7352 22.285C67.9652 21.8183 66.8685 21.585 65.4452 21.585C63.9285 21.585 62.7852 21.8533 62.0152 22.39C61.2452 22.9033 60.8602 23.6617 60.8602 24.665C60.8602 25.5283 61.0702 26.1817 61.4902 26.625C61.9335 27.0683 62.4935 27.3717 63.1702 27.535C63.8702 27.6983 64.8619 27.8383 66.1452 27.955C67.6152 28.095 68.8285 28.3167 69.7852 28.62C70.7419 28.9233 71.5002 29.4367 72.0602 30.16C72.6435 30.86 72.9352 31.8517 72.9352 33.135C72.9352 34.815 72.3285 36.1333 71.1152 37.09C69.9252 38.0233 68.1402 38.49 65.7602 38.49ZM78.0613 45.7C77.828 45.7 77.6647 45.6533 77.5713 45.56C77.478 45.4667 77.4313 45.3033 77.4313 45.07V22.46C77.4313 21.8767 77.5247 21.4683 77.7113 21.235C77.898 20.9783 78.2713 20.7333 78.8313 20.5C80.5347 19.8233 82.5763 19.485 84.9563 19.485C89.8097 19.485 92.2363 21.8183 92.2363 26.485V31.525C92.2363 36.1683 89.8447 38.49 85.0613 38.49C84.0347 38.49 83.1247 38.3733 82.3313 38.14C81.538 37.93 80.6863 37.65 79.7763 37.3V45.07C79.7763 45.3267 79.7297 45.49 79.6363 45.56C79.5663 45.6533 79.403 45.7 79.1463 45.7H78.0613ZM79.7763 35.13C81.5497 35.9467 83.253 36.355 84.8863 36.355C88.223 36.355 89.8913 34.7217 89.8913 31.455V26.555C89.8913 23.265 88.153 21.62 84.6763 21.62C83.183 21.62 81.783 21.8533 80.4763 22.32C80.173 22.4367 79.9747 22.5533 79.8813 22.67C79.8113 22.7867 79.7763 22.985 79.7763 23.265V35.13ZM97.7846 38C97.5513 38 97.388 37.9533 97.2946 37.86C97.2013 37.7667 97.1546 37.6033 97.1546 37.37V20.64C97.1546 20.4067 97.2013 20.2433 97.2946 20.15C97.388 20.0567 97.5513 20.01 97.7846 20.01H98.8696C99.1263 20.01 99.2896 20.0567 99.3596 20.15C99.453 20.22 99.4996 20.3833 99.4996 20.64V37.37C99.4996 37.6033 99.453 37.7667 99.3596 37.86C99.2896 37.9533 99.1263 38 98.8696 38H97.7846ZM96.9446 14.34C96.9446 13.8267 97.0263 13.4883 97.1896 13.325C97.3763 13.1383 97.7263 13.045 98.2396 13.045H98.4496C98.963 13.045 99.3013 13.1383 99.4646 13.325C99.6513 13.4883 99.7446 13.8267 99.7446 14.34V14.55C99.7446 15.0633 99.6513 15.4133 99.4646 15.6C99.3013 15.7633 98.963 15.845 98.4496 15.845H98.2396C97.7263 15.845 97.3763 15.7633 97.1896 15.6C97.0263 15.4133 96.9446 15.0633 96.9446 14.55V14.34ZM105.61 38C105.377 38 105.213 37.9533 105.12 37.86C105.027 37.7667 104.98 37.6033 104.98 37.37V23.02C104.98 22.4833 105.073 22.0867 105.26 21.83C105.447 21.55 105.797 21.305 106.31 21.095C108.083 20.3717 110.195 20.01 112.645 20.01H113.73C113.963 20.01 114.127 20.0567 114.22 20.15C114.313 20.2433 114.36 20.4067 114.36 20.64V21.515C114.36 21.7483 114.313 21.9117 114.22 22.005C114.127 22.0983 113.963 22.145 113.73 22.145H112.575C110.825 22.145 109.285 22.39 107.955 22.88C107.698 22.9967 107.523 23.125 107.43 23.265C107.36 23.405 107.325 23.5917 107.325 23.825V37.37C107.325 37.6033 107.278 37.7667 107.185 37.86C107.115 37.9533 106.952 38 106.695 38H105.61ZM118.566 38C118.333 38 118.169 37.9533 118.076 37.86C117.983 37.7667 117.936 37.6033 117.936 37.37V20.64C117.936 20.4067 117.983 20.2433 118.076 20.15C118.169 20.0567 118.333 20.01 118.566 20.01H119.651C119.908 20.01 120.071 20.0567 120.141 20.15C120.234 20.22 120.281 20.3833 120.281 20.64V37.37C120.281 37.6033 120.234 37.7667 120.141 37.86C120.071 37.9533 119.908 38 119.651 38H118.566ZM117.726 14.34C117.726 13.8267 117.808 13.4883 117.971 13.325C118.158 13.1383 118.508 13.045 119.021 13.045H119.231C119.744 13.045 120.083 13.1383 120.246 13.325C120.433 13.4883 120.526 13.8267 120.526 14.34V14.55C120.526 15.0633 120.433 15.4133 120.246 15.6C120.083 15.7633 119.744 15.845 119.231 15.845H119.021C118.508 15.845 118.158 15.7633 117.971 15.6C117.808 15.4133 117.726 15.0633 117.726 14.55V14.34ZM126.391 38C126.158 38 125.995 37.9533 125.901 37.86C125.808 37.7667 125.761 37.6033 125.761 37.37V22.6C125.761 22.0633 125.843 21.6667 126.006 21.41C126.193 21.1533 126.555 20.9083 127.091 20.675C129.028 19.8817 131.198 19.485 133.601 19.485C135.958 19.485 137.708 20.08 138.851 21.27C139.995 22.4367 140.566 24.1283 140.566 26.345V37.37C140.566 37.6033 140.52 37.7667 140.426 37.86C140.333 37.9533 140.17 38 139.936 38H138.851C138.618 38 138.455 37.9533 138.361 37.86C138.268 37.7667 138.221 37.6033 138.221 37.37V26.415C138.221 24.8283 137.825 23.6383 137.031 22.845C136.238 22.0283 135.001 21.62 133.321 21.62C131.688 21.62 130.136 21.8883 128.666 22.425C128.433 22.5183 128.281 22.635 128.211 22.775C128.141 22.915 128.106 23.09 128.106 23.3V37.37C128.106 37.6033 128.06 37.7667 127.966 37.86C127.896 37.9533 127.733 38 127.476 38H126.391ZM152.788 46.645C150.992 46.645 149.533 46.3183 148.413 45.665C147.293 45.0117 146.407 44.09 145.753 42.9C145.66 42.7367 145.613 42.5733 145.613 42.41C145.613 42.2 145.753 42.025 146.033 41.885L146.768 41.465C146.955 41.3717 147.118 41.325 147.258 41.325C147.422 41.325 147.597 41.4533 147.783 41.71C148.297 42.6433 148.927 43.3433 149.673 43.81C150.42 44.2767 151.435 44.51 152.718 44.51C156.125 44.51 157.828 42.7367 157.828 39.19V37.02C155.938 37.72 154.095 38.07 152.298 38.07C149.965 38.07 148.227 37.4867 147.083 36.32C145.94 35.13 145.368 33.4383 145.368 31.245V26.66C145.368 21.8767 147.888 19.485 152.928 19.485C154.118 19.485 155.215 19.59 156.218 19.8C157.245 19.9867 158.12 20.2317 158.843 20.535C159.403 20.7917 159.765 21.0367 159.928 21.27C160.092 21.48 160.173 21.8767 160.173 22.46V39.085C160.173 41.465 159.578 43.32 158.388 44.65C157.198 45.98 155.332 46.645 152.788 46.645ZM147.713 31.175C147.713 32.715 148.11 33.8933 148.903 34.71C149.72 35.5267 150.945 35.935 152.578 35.935C153.675 35.935 154.632 35.83 155.448 35.62C156.265 35.41 157.058 35.165 157.828 34.885V23.23C157.828 22.95 157.793 22.7633 157.723 22.67C157.653 22.5533 157.467 22.4367 157.163 22.32C155.903 21.8533 154.538 21.62 153.068 21.62C149.498 21.62 147.713 23.3117 147.713 26.695V31.175ZM174.973 38C174.716 38 174.541 37.9533 174.448 37.86C174.355 37.7433 174.308 37.5567 174.308 37.3V13.85C174.308 13.5933 174.355 13.4183 174.448 13.325C174.541 13.2083 174.716 13.15 174.973 13.15H176.163C176.42 13.15 176.595 13.2083 176.688 13.325C176.781 13.4183 176.828 13.5933 176.828 13.85V37.3C176.828 37.5567 176.781 37.7433 176.688 37.86C176.595 37.9533 176.42 38 176.163 38H174.973ZM183.266 38C183.033 38 182.87 37.9533 182.776 37.86C182.683 37.7667 182.636 37.6033 182.636 37.37V22.6C182.636 22.0633 182.718 21.6667 182.881 21.41C183.068 21.1533 183.43 20.9083 183.966 20.675C185.903 19.8817 188.073 19.485 190.476 19.485C192.833 19.485 194.583 20.08 195.726 21.27C196.87 22.4367 197.441 24.1283 197.441 26.345V37.37C197.441 37.6033 197.395 37.7667 197.301 37.86C197.208 37.9533 197.045 38 196.811 38H195.726C195.493 38 195.33 37.9533 195.236 37.86C195.143 37.7667 195.096 37.6033 195.096 37.37V26.415C195.096 24.8283 194.7 23.6383 193.906 22.845C193.113 22.0283 191.876 21.62 190.196 21.62C188.563 21.62 187.011 21.8883 185.541 22.425C185.308 22.5183 185.156 22.635 185.086 22.775C185.016 22.915 184.981 23.09 184.981 23.3V37.37C184.981 37.6033 184.935 37.7667 184.841 37.86C184.771 37.9533 184.608 38 184.351 38H183.266ZM203.398 38C203.165 38 203.002 37.9533 202.908 37.86C202.815 37.7667 202.768 37.6033 202.768 37.37V22.6C202.768 22.0633 202.85 21.6667 203.013 21.41C203.2 21.1533 203.562 20.9083 204.098 20.675C206.035 19.8817 208.205 19.485 210.608 19.485C212.965 19.485 214.715 20.08 215.858 21.27C217.002 22.4367 217.573 24.1283 217.573 26.345V37.37C217.573 37.6033 217.527 37.7667 217.433 37.86C217.34 37.9533 217.177 38 216.943 38H215.858C215.625 38 215.462 37.9533 215.368 37.86C215.275 37.7667 215.228 37.6033 215.228 37.37V26.415C215.228 24.8283 214.832 23.6383 214.038 22.845C213.245 22.0283 212.008 21.62 210.328 21.62C208.695 21.62 207.143 21.8883 205.673 22.425C205.44 22.5183 205.288 22.635 205.218 22.775C205.148 22.915 205.113 23.09 205.113 23.3V37.37C205.113 37.6033 205.067 37.7667 204.973 37.86C204.903 37.9533 204.74 38 204.483 38H203.398ZM230.075 38.49C227.695 38.49 225.817 37.9183 224.44 36.775C223.087 35.6317 222.41 34.0683 222.41 32.085V25.925C222.41 23.9183 223.087 22.3433 224.44 21.2C225.817 20.0567 227.695 19.485 230.075 19.485C232.478 19.485 234.357 20.0567 235.71 21.2C237.087 22.3433 237.775 23.9183 237.775 25.925V32.085C237.775 34.0917 237.087 35.6667 235.71 36.81C234.357 37.93 232.478 38.49 230.075 38.49ZM224.755 32.085C224.755 33.415 225.233 34.465 226.19 35.235C227.147 36.005 228.442 36.39 230.075 36.39C231.732 36.39 233.038 36.005 233.995 35.235C234.952 34.465 235.43 33.415 235.43 32.085V25.89C235.43 24.56 234.952 23.5217 233.995 22.775C233.038 22.005 231.732 21.62 230.075 21.62C228.442 21.62 227.147 22.005 226.19 22.775C225.233 23.5217 224.755 24.56 224.755 25.89V32.085ZM248.545 38.105C248.288 38.105 248.09 38.07 247.95 38C247.833 37.9067 247.728 37.7433 247.635 37.51L240.635 20.745C240.565 20.5583 240.53 20.4183 240.53 20.325C240.53 20.2083 240.577 20.1267 240.67 20.08C240.763 20.0333 240.915 20.01 241.125 20.01H241.93C242.303 20.01 242.56 20.0567 242.7 20.15C242.84 20.22 242.957 20.3833 243.05 20.64L247.845 32.19C248.078 32.8667 248.3 33.555 248.51 34.255L248.825 35.235H248.93C249 35.0483 249.093 34.7333 249.21 34.29C249.513 33.2867 249.735 32.5983 249.875 32.225L254.635 20.64C254.728 20.3833 254.845 20.22 254.985 20.15C255.125 20.0567 255.382 20.01 255.755 20.01H256.595C256.992 20.01 257.19 20.115 257.19 20.325C257.19 20.395 257.155 20.5233 257.085 20.71L250.085 37.51C249.968 37.7433 249.84 37.9067 249.7 38C249.583 38.07 249.408 38.105 249.175 38.105H248.545ZM266.976 38.49C264.993 38.49 263.453 38.2917 262.356 37.895C261.259 37.475 260.489 36.88 260.046 36.11C259.626 35.3167 259.416 34.3017 259.416 33.065C259.416 31.7117 259.673 30.65 260.186 29.88C260.699 29.0867 261.516 28.5267 262.636 28.2C263.756 27.85 265.249 27.675 267.116 27.675C268.773 27.675 270.301 27.7917 271.701 28.025V26.38C271.701 24.8633 271.351 23.685 270.651 22.845C269.974 22.005 268.749 21.585 266.976 21.585C264.666 21.585 263.021 22.425 262.041 24.105C261.971 24.2217 261.889 24.3267 261.796 24.42C261.726 24.49 261.644 24.525 261.551 24.525C261.458 24.525 261.341 24.49 261.201 24.42L260.361 24.07C260.058 23.9767 259.906 23.8133 259.906 23.58C259.906 23.4633 259.941 23.3233 260.011 23.16C261.318 20.71 263.663 19.485 267.046 19.485C269.636 19.485 271.444 20.115 272.471 21.375C273.521 22.6117 274.046 24.2917 274.046 26.415V35.585C274.046 36.1917 273.953 36.6233 273.766 36.88C273.603 37.1367 273.276 37.37 272.786 37.58C271.386 38.1867 269.449 38.49 266.976 38.49ZM261.796 33.03C261.796 34.22 262.146 35.1067 262.846 35.69C263.546 36.25 264.864 36.53 266.801 36.53C268.668 36.53 270.079 36.3433 271.036 35.97C271.316 35.8533 271.491 35.7367 271.561 35.62C271.654 35.5033 271.701 35.2817 271.701 34.955V29.88C269.601 29.67 267.991 29.565 266.871 29.565C265.004 29.565 263.686 29.8333 262.916 30.37C262.169 30.9067 261.796 31.7933 261.796 33.03ZM288.229 38C286.339 38 284.869 37.79 283.819 37.37C282.792 36.95 282.046 36.2383 281.579 35.235C281.112 34.2083 280.879 32.7383 280.879 30.825V22.18H277.554C277.321 22.18 277.157 22.1333 277.064 22.04C276.971 21.9467 276.924 21.7833 276.924 21.55V20.64C276.924 20.4067 276.971 20.2433 277.064 20.15C277.157 20.0567 277.321 20.01 277.554 20.01H280.879V16.44C280.879 16.2067 280.926 16.0433 281.019 15.95C281.112 15.8567 281.276 15.81 281.509 15.81H282.594C282.851 15.81 283.014 15.8567 283.084 15.95C283.177 16.02 283.224 16.1833 283.224 16.44V20.01H288.264C288.521 20.01 288.684 20.0567 288.754 20.15C288.847 20.22 288.894 20.3833 288.894 20.64V21.55C288.894 21.7833 288.847 21.9467 288.754 22.04C288.661 22.1333 288.497 22.18 288.264 22.18H283.224V30.755C283.224 32.155 283.376 33.2167 283.679 33.94C283.982 34.64 284.484 35.1183 285.184 35.375C285.884 35.6317 286.899 35.76 288.229 35.76C288.462 35.76 288.626 35.8067 288.719 35.9C288.812 35.9933 288.859 36.1567 288.859 36.39V37.335C288.859 37.5917 288.812 37.7667 288.719 37.86C288.626 37.9533 288.462 38 288.229 38ZM293.122 38C292.888 38 292.725 37.9533 292.632 37.86C292.538 37.7667 292.492 37.6033 292.492 37.37V20.64C292.492 20.4067 292.538 20.2433 292.632 20.15C292.725 20.0567 292.888 20.01 293.122 20.01H294.207C294.463 20.01 294.627 20.0567 294.697 20.15C294.79 20.22 294.837 20.3833 294.837 20.64V37.37C294.837 37.6033 294.79 37.7667 294.697 37.86C294.627 37.9533 294.463 38 294.207 38H293.122ZM292.282 14.34C292.282 13.8267 292.363 13.4883 292.527 13.325C292.713 13.1383 293.063 13.045 293.577 13.045H293.787C294.3 13.045 294.638 13.1383 294.802 13.325C294.988 13.4883 295.082 13.8267 295.082 14.34V14.55C295.082 15.0633 294.988 15.4133 294.802 15.6C294.638 15.7633 294.3 15.845 293.787 15.845H293.577C293.063 15.845 292.713 15.7633 292.527 15.6C292.363 15.4133 292.282 15.0633 292.282 14.55V14.34ZM307.492 38.49C305.112 38.49 303.234 37.9183 301.857 36.775C300.504 35.6317 299.827 34.0683 299.827 32.085V25.925C299.827 23.9183 300.504 22.3433 301.857 21.2C303.234 20.0567 305.112 19.485 307.492 19.485C309.895 19.485 311.774 20.0567 313.127 21.2C314.504 22.3433 315.192 23.9183 315.192 25.925V32.085C315.192 34.0917 314.504 35.6667 313.127 36.81C311.774 37.93 309.895 38.49 307.492 38.49ZM302.172 32.085C302.172 33.415 302.65 34.465 303.607 35.235C304.564 36.005 305.859 36.39 307.492 36.39C309.149 36.39 310.455 36.005 311.412 35.235C312.369 34.465 312.847 33.415 312.847 32.085V25.89C312.847 24.56 312.369 23.5217 311.412 22.775C310.455 22.005 309.149 21.62 307.492 21.62C305.859 21.62 304.564 22.005 303.607 22.775C302.65 23.5217 302.172 24.56 302.172 25.89V32.085ZM320.737 38C320.504 38 320.34 37.9533 320.247 37.86C320.154 37.7667 320.107 37.6033 320.107 37.37V22.6C320.107 22.0633 320.189 21.6667 320.352 21.41C320.539 21.1533 320.9 20.9083 321.437 20.675C323.374 19.8817 325.544 19.485 327.947 19.485C330.304 19.485 332.054 20.08 333.197 21.27C334.34 22.4367 334.912 24.1283 334.912 26.345V37.37C334.912 37.6033 334.865 37.7667 334.772 37.86C334.679 37.9533 334.515 38 334.282 38H333.197C332.964 38 332.8 37.9533 332.707 37.86C332.614 37.7667 332.567 37.6033 332.567 37.37V26.415C332.567 24.8283 332.17 23.6383 331.377 22.845C330.584 22.0283 329.347 21.62 327.667 21.62C326.034 21.62 324.482 21.8883 323.012 22.425C322.779 22.5183 322.627 22.635 322.557 22.775C322.487 22.915 322.452 23.09 322.452 23.3V37.37C322.452 37.6033 322.405 37.7667 322.312 37.86C322.242 37.9533 322.079 38 321.822 38H320.737ZM339.259 42.235C339.049 42.235 338.909 42.2 338.839 42.13C338.792 42.06 338.781 41.9317 338.804 41.745L339.994 35.97C340.041 35.6667 340.134 35.4567 340.274 35.34C340.414 35.2233 340.636 35.165 340.939 35.165H341.849C342.316 35.165 342.549 35.3167 342.549 35.62C342.549 35.76 342.526 35.8767 342.479 35.97L340.519 41.64C340.426 41.8733 340.321 42.025 340.204 42.095C340.111 42.1883 339.947 42.235 339.714 42.235H339.259ZM356.912 38C356.655 38 356.48 37.9533 356.387 37.86C356.293 37.7433 356.247 37.5567 356.247 37.3V13.85C356.247 13.5933 356.293 13.4183 356.387 13.325C356.48 13.2083 356.655 13.15 356.912 13.15H358.102C358.358 13.15 358.533 13.2083 358.627 13.325C358.72 13.4183 358.767 13.5933 358.767 13.85V37.3C358.767 37.5567 358.72 37.7433 358.627 37.86C358.533 37.9533 358.358 38 358.102 38H356.912ZM371.367 46.645C369.571 46.645 368.112 46.3183 366.992 45.665C365.872 45.0117 364.986 44.09 364.332 42.9C364.239 42.7367 364.192 42.5733 364.192 42.41C364.192 42.2 364.332 42.025 364.612 41.885L365.347 41.465C365.534 41.3717 365.697 41.325 365.837 41.325C366.001 41.325 366.176 41.4533 366.362 41.71C366.876 42.6433 367.506 43.3433 368.252 43.81C368.999 44.2767 370.014 44.51 371.297 44.51C374.704 44.51 376.407 42.7367 376.407 39.19V37.02C374.517 37.72 372.674 38.07 370.877 38.07C368.544 38.07 366.806 37.4867 365.662 36.32C364.519 35.13 363.947 33.4383 363.947 31.245V26.66C363.947 21.8767 366.467 19.485 371.507 19.485C372.697 19.485 373.794 19.59 374.797 19.8C375.824 19.9867 376.699 20.2317 377.422 20.535C377.982 20.7917 378.344 21.0367 378.507 21.27C378.671 21.48 378.752 21.8767 378.752 22.46V39.085C378.752 41.465 378.157 43.32 376.967 44.65C375.777 45.98 373.911 46.645 371.367 46.645ZM366.292 31.175C366.292 32.715 366.689 33.8933 367.482 34.71C368.299 35.5267 369.524 35.935 371.157 35.935C372.254 35.935 373.211 35.83 374.027 35.62C374.844 35.41 375.637 35.165 376.407 34.885V23.23C376.407 22.95 376.372 22.7633 376.302 22.67C376.232 22.5533 376.046 22.4367 375.742 22.32C374.482 21.8533 373.117 21.62 371.647 21.62C368.077 21.62 366.292 23.3117 366.292 26.695V31.175ZM384.756 38C384.522 38 384.359 37.9533 384.266 37.86C384.172 37.7667 384.126 37.6033 384.126 37.37V22.6C384.126 22.0633 384.207 21.6667 384.371 21.41C384.557 21.1533 384.919 20.9083 385.456 20.675C387.392 19.8817 389.562 19.485 391.966 19.485C394.322 19.485 396.072 20.08 397.216 21.27C398.359 22.4367 398.931 24.1283 398.931 26.345V37.37C398.931 37.6033 398.884 37.7667 398.791 37.86C398.697 37.9533 398.534 38 398.301 38H397.216C396.982 38 396.819 37.9533 396.726 37.86C396.632 37.7667 396.586 37.6033 396.586 37.37V26.415C396.586 24.8283 396.189 23.6383 395.396 22.845C394.602 22.0283 393.366 21.62 391.686 21.62C390.052 21.62 388.501 21.8883 387.031 22.425C386.797 22.5183 386.646 22.635 386.576 22.775C386.506 22.915 386.471 23.09 386.471 23.3V37.37C386.471 37.6033 386.424 37.7667 386.331 37.86C386.261 37.9533 386.097 38 385.841 38H384.756ZM404.958 38C404.724 38 404.561 37.9533 404.468 37.86C404.374 37.7667 404.328 37.6033 404.328 37.37V20.64C404.328 20.4067 404.374 20.2433 404.468 20.15C404.561 20.0567 404.724 20.01 404.958 20.01H406.043C406.299 20.01 406.463 20.0567 406.533 20.15C406.626 20.22 406.673 20.3833 406.673 20.64V37.37C406.673 37.6033 406.626 37.7667 406.533 37.86C406.463 37.9533 406.299 38 406.043 38H404.958ZM404.118 14.34C404.118 13.8267 404.199 13.4883 404.363 13.325C404.549 13.1383 404.899 13.045 405.413 13.045H405.623C406.136 13.045 406.474 13.1383 406.638 13.325C406.824 13.4883 406.918 13.8267 406.918 14.34V14.55C406.918 15.0633 406.824 15.4133 406.638 15.6C406.474 15.7633 406.136 15.845 405.623 15.845H405.413C404.899 15.845 404.549 15.7633 404.363 15.6C404.199 15.4133 404.118 15.0633 404.118 14.55V14.34ZM421.393 38C419.503 38 418.033 37.79 416.983 37.37C415.956 36.95 415.21 36.2383 414.743 35.235C414.276 34.2083 414.043 32.7383 414.043 30.825V22.18H410.718C410.485 22.18 410.321 22.1333 410.228 22.04C410.135 21.9467 410.088 21.7833 410.088 21.55V20.64C410.088 20.4067 410.135 20.2433 410.228 20.15C410.321 20.0567 410.485 20.01 410.718 20.01H414.043V16.44C414.043 16.2067 414.09 16.0433 414.183 15.95C414.276 15.8567 414.44 15.81 414.673 15.81H415.758C416.015 15.81 416.178 15.8567 416.248 15.95C416.341 16.02 416.388 16.1833 416.388 16.44V20.01H421.428C421.685 20.01 421.848 20.0567 421.918 20.15C422.011 20.22 422.058 20.3833 422.058 20.64V21.55C422.058 21.7833 422.011 21.9467 421.918 22.04C421.825 22.1333 421.661 22.18 421.428 22.18H416.388V30.755C416.388 32.155 416.54 33.2167 416.843 33.94C417.146 34.64 417.648 35.1183 418.348 35.375C419.048 35.6317 420.063 35.76 421.393 35.76C421.626 35.76 421.79 35.8067 421.883 35.9C421.976 35.9933 422.023 36.1567 422.023 36.39V37.335C422.023 37.5917 421.976 37.7667 421.883 37.86C421.79 37.9533 421.626 38 421.393 38ZM426.286 38C426.052 38 425.889 37.9533 425.796 37.86C425.702 37.7667 425.656 37.6033 425.656 37.37V20.64C425.656 20.4067 425.702 20.2433 425.796 20.15C425.889 20.0567 426.052 20.01 426.286 20.01H427.371C427.627 20.01 427.791 20.0567 427.861 20.15C427.954 20.22 428.001 20.3833 428.001 20.64V37.37C428.001 37.6033 427.954 37.7667 427.861 37.86C427.791 37.9533 427.627 38 427.371 38H426.286ZM425.446 14.34C425.446 13.8267 425.527 13.4883 425.691 13.325C425.877 13.1383 426.227 13.045 426.741 13.045H426.951C427.464 13.045 427.802 13.1383 427.966 13.325C428.152 13.4883 428.246 13.8267 428.246 14.34V14.55C428.246 15.0633 428.152 15.4133 427.966 15.6C427.802 15.7633 427.464 15.845 426.951 15.845H426.741C426.227 15.845 425.877 15.7633 425.691 15.6C425.527 15.4133 425.446 15.0633 425.446 14.55V14.34ZM434.111 38C433.878 38 433.714 37.9533 433.621 37.86C433.528 37.7667 433.481 37.6033 433.481 37.37V22.6C433.481 22.0633 433.563 21.6667 433.726 21.41C433.913 21.1533 434.274 20.9083 434.811 20.675C436.748 19.8817 438.918 19.485 441.321 19.485C443.678 19.485 445.428 20.08 446.571 21.27C447.714 22.4367 448.286 24.1283 448.286 26.345V37.37C448.286 37.6033 448.239 37.7667 448.146 37.86C448.053 37.9533 447.889 38 447.656 38H446.571C446.338 38 446.174 37.9533 446.081 37.86C445.988 37.7667 445.941 37.6033 445.941 37.37V26.415C445.941 24.8283 445.544 23.6383 444.751 22.845C443.958 22.0283 442.721 21.62 441.041 21.62C439.408 21.62 437.856 21.8883 436.386 22.425C436.153 22.5183 436.001 22.635 435.931 22.775C435.861 22.915 435.826 23.09 435.826 23.3V37.37C435.826 37.6033 435.779 37.7667 435.686 37.86C435.616 37.9533 435.453 38 435.196 38H434.111ZM460.508 46.645C458.711 46.645 457.253 46.3183 456.133 45.665C455.013 45.0117 454.126 44.09 453.473 42.9C453.38 42.7367 453.333 42.5733 453.333 42.41C453.333 42.2 453.473 42.025 453.753 41.885L454.488 41.465C454.675 41.3717 454.838 41.325 454.978 41.325C455.141 41.325 455.316 41.4533 455.503 41.71C456.016 42.6433 456.646 43.3433 457.393 43.81C458.14 44.2767 459.155 44.51 460.438 44.51C463.845 44.51 465.548 42.7367 465.548 39.19V37.02C463.658 37.72 461.815 38.07 460.018 38.07C457.685 38.07 455.946 37.4867 454.803 36.32C453.66 35.13 453.088 33.4383 453.088 31.245V26.66C453.088 21.8767 455.608 19.485 460.648 19.485C461.838 19.485 462.935 19.59 463.938 19.8C464.965 19.9867 465.84 20.2317 466.563 20.535C467.123 20.7917 467.485 21.0367 467.648 21.27C467.811 21.48 467.893 21.8767 467.893 22.46V39.085C467.893 41.465 467.298 43.32 466.108 44.65C464.918 45.98 463.051 46.645 460.508 46.645ZM455.433 31.175C455.433 32.715 455.83 33.8933 456.623 34.71C457.44 35.5267 458.665 35.935 460.298 35.935C461.395 35.935 462.351 35.83 463.168 35.62C463.985 35.41 464.778 35.165 465.548 34.885V23.23C465.548 22.95 465.513 22.7633 465.443 22.67C465.373 22.5533 465.186 22.4367 464.883 22.32C463.623 21.8533 462.258 21.62 460.788 21.62C457.218 21.62 455.433 23.3117 455.433 26.695V31.175ZM482.693 38C482.436 38 482.261 37.9533 482.168 37.86C482.074 37.7433 482.028 37.5567 482.028 37.3V13.85C482.028 13.5933 482.074 13.4183 482.168 13.325C482.261 13.2083 482.436 13.15 482.693 13.15H496.903C497.159 13.15 497.334 13.2083 497.428 13.325C497.521 13.4183 497.568 13.5933 497.568 13.85V14.83C497.568 15.0867 497.521 15.2617 497.428 15.355C497.334 15.4483 497.159 15.495 496.903 15.495H484.548V24.595H495.188C495.444 24.595 495.619 24.6417 495.713 24.735C495.806 24.8283 495.853 25.0033 495.853 25.26V26.24C495.853 26.4967 495.806 26.6833 495.713 26.8C495.619 26.8933 495.444 26.94 495.188 26.94H484.548V37.3C484.548 37.5567 484.501 37.7433 484.408 37.86C484.314 37.9533 484.139 38 483.883 38H482.693ZM507.504 38.49C505.148 38.49 503.398 37.9067 502.254 36.74C501.134 35.5733 500.574 33.8817 500.574 31.665V20.64C500.574 20.3833 500.621 20.22 500.714 20.15C500.808 20.0567 500.971 20.01 501.204 20.01H502.289C502.523 20.01 502.686 20.0567 502.779 20.15C502.873 20.2433 502.919 20.4067 502.919 20.64V31.56C502.919 33.1467 503.316 34.3483 504.109 35.165C504.903 35.9583 506.139 36.355 507.819 36.355C509.523 36.355 511.039 36.11 512.369 35.62C512.626 35.5033 512.789 35.375 512.859 35.235C512.953 35.0717 512.999 34.8617 512.999 34.605V20.64C512.999 20.4067 513.046 20.2433 513.139 20.15C513.233 20.0567 513.396 20.01 513.629 20.01H514.714C514.948 20.01 515.111 20.0567 515.204 20.15C515.298 20.2433 515.344 20.4067 515.344 20.64V35.41C515.344 35.9467 515.251 36.3433 515.064 36.6C514.901 36.8567 514.563 37.1017 514.049 37.335C512.183 38.105 510.001 38.49 507.504 38.49ZM530.016 38C528.126 38 526.656 37.79 525.606 37.37C524.579 36.95 523.833 36.2383 523.366 35.235C522.899 34.2083 522.666 32.7383 522.666 30.825V22.18H519.341C519.108 22.18 518.944 22.1333 518.851 22.04C518.758 21.9467 518.711 21.7833 518.711 21.55V20.64C518.711 20.4067 518.758 20.2433 518.851 20.15C518.944 20.0567 519.108 20.01 519.341 20.01H522.666V16.44C522.666 16.2067 522.713 16.0433 522.806 15.95C522.899 15.8567 523.063 15.81 523.296 15.81H524.381C524.638 15.81 524.801 15.8567 524.871 15.95C524.964 16.02 525.011 16.1833 525.011 16.44V20.01H530.051C530.308 20.01 530.471 20.0567 530.541 20.15C530.634 20.22 530.681 20.3833 530.681 20.64V21.55C530.681 21.7833 530.634 21.9467 530.541 22.04C530.448 22.1333 530.284 22.18 530.051 22.18H525.011V30.755C525.011 32.155 525.163 33.2167 525.466 33.94C525.769 34.64 526.271 35.1183 526.971 35.375C527.671 35.6317 528.686 35.76 530.016 35.76C530.249 35.76 530.413 35.8067 530.506 35.9C530.599 35.9933 530.646 36.1567 530.646 36.39V37.335C530.646 37.5917 530.599 37.7667 530.506 37.86C530.413 37.9533 530.249 38 530.016 38ZM541.069 38.49C538.712 38.49 536.962 37.9067 535.819 36.74C534.699 35.5733 534.139 33.8817 534.139 31.665V20.64C534.139 20.3833 534.185 20.22 534.279 20.15C534.372 20.0567 534.535 20.01 534.769 20.01H535.854C536.087 20.01 536.25 20.0567 536.344 20.15C536.437 20.2433 536.484 20.4067 536.484 20.64V31.56C536.484 33.1467 536.88 34.3483 537.674 35.165C538.467 35.9583 539.704 36.355 541.384 36.355C543.087 36.355 544.604 36.11 545.934 35.62C546.19 35.5033 546.354 35.375 546.424 35.235C546.517 35.0717 546.564 34.8617 546.564 34.605V20.64C546.564 20.4067 546.61 20.2433 546.704 20.15C546.797 20.0567 546.96 20.01 547.194 20.01H548.279C548.512 20.01 548.675 20.0567 548.769 20.15C548.862 20.2433 548.909 20.4067 548.909 20.64V35.41C548.909 35.9467 548.815 36.3433 548.629 36.6C548.465 36.8567 548.127 37.1017 547.614 37.335C545.747 38.105 543.565 38.49 541.069 38.49ZM554.971 38C554.737 38 554.574 37.9533 554.481 37.86C554.387 37.7667 554.341 37.6033 554.341 37.37V23.02C554.341 22.4833 554.434 22.0867 554.621 21.83C554.807 21.55 555.157 21.305 555.671 21.095C557.444 20.3717 559.556 20.01 562.006 20.01H563.091C563.324 20.01 563.487 20.0567 563.581 20.15C563.674 20.2433 563.721 20.4067 563.721 20.64V21.515C563.721 21.7483 563.674 21.9117 563.581 22.005C563.487 22.0983 563.324 22.145 563.091 22.145H561.936C560.186 22.145 558.646 22.39 557.316 22.88C557.059 22.9967 556.884 23.125 556.791 23.265C556.721 23.405 556.686 23.5917 556.686 23.825V37.37C556.686 37.6033 556.639 37.7667 556.546 37.86C556.476 37.9533 556.312 38 556.056 38H554.971ZM573.337 38.49C570.817 38.49 568.927 37.86 567.667 36.6C566.407 35.34 565.777 33.6133 565.777 31.42V26.87C565.777 24.5367 566.43 22.7283 567.737 21.445C569.067 20.1383 570.992 19.485 573.512 19.485C576.055 19.485 577.98 20.15 579.287 21.48C580.617 22.7867 581.282 24.5367 581.282 26.73V28.655C581.282 29.3083 580.932 29.635 580.232 29.635H568.122V31.665C568.122 33.1817 568.565 34.36 569.452 35.2C570.362 36.04 571.668 36.46 573.372 36.46C575.962 36.46 577.793 35.4917 578.867 33.555C579.077 33.2983 579.263 33.17 579.427 33.17C579.567 33.17 579.718 33.2167 579.882 33.31L580.617 33.695C580.897 33.835 581.037 34.01 581.037 34.22C581.037 34.36 580.978 34.5233 580.862 34.71C579.462 37.23 576.953 38.49 573.337 38.49ZM578.937 27.815V26.59C578.937 25.0033 578.47 23.7667 577.537 22.88C576.627 21.97 575.285 21.515 573.512 21.515C571.762 21.515 570.42 21.97 569.487 22.88C568.577 23.7667 568.122 25.0033 568.122 26.59V27.815H578.937Z" fill="#55423C"/>
<path d="M156.965 77.9655L165.65 78.0298C164.235 78.6732 163.785 80.4745 164.621 83.1766L177.488 122.164L182.184 107.753L174.142 83.1766C172.984 79.7025 172.212 78.6732 170.861 78.0298H179.547C178.131 78.6732 177.681 80.4745 178.517 83.1766L184.372 100.997L190.291 83.1766C191.127 80.4745 191.577 78.6732 190.162 78.0298H194.151C192.735 78.6732 191.963 79.7025 190.805 83.1766L184.693 101.834L191.384 122.164L204.187 83.1766C205.023 80.4745 205.474 78.6732 204.058 78.0298H208.047C206.889 78.5445 206.117 79.3808 205.281 81.5682C204.959 82.3403 204.637 83.3053 204.38 84.1416L191.642 123H187.202L182.442 108.525L177.745 123H173.306L160.246 83.1766C159.088 79.7025 158.316 78.6732 156.965 77.9655ZM217.56 93.5989C225.731 93.5989 232.293 100.161 232.293 108.332C232.293 116.438 225.731 123 217.56 123C209.454 123 202.892 116.438 202.892 108.332C202.892 100.161 209.454 93.5989 217.56 93.5989ZM215.373 94.5639C214.408 94.5639 213.378 94.6926 212.413 95.0786C207.009 97.2016 204.95 104.858 207.781 112.127C210.612 119.462 217.303 123.643 222.707 121.52C228.111 119.462 230.234 111.806 227.403 104.472C225.087 98.4884 220.069 94.5639 215.373 94.5639ZM250.777 93.4702C251.613 93.4702 252.578 93.5346 253.672 93.8562C254.894 94.1779 256.116 94.6926 257.274 95.5933C259.269 97.1373 260.427 99.003 260.942 101.512C261.135 100.997 261.263 100.547 261.456 100.032C261.842 98.9387 262.486 97.7807 263.386 96.7513C264.223 95.7219 265.252 94.9499 266.346 94.4352C267.632 93.7919 268.855 93.5989 269.691 93.5346C271.106 93.4702 272.393 93.4702 273.873 93.8562C275.031 94.1779 276.253 94.6926 277.411 95.5933C280.306 97.845 281.464 100.74 281.464 105.244V117.853C281.464 121.199 282.751 122.357 284.166 123.064H281.464H277.283V105.051C277.283 99.8394 275.674 94.3709 269.755 94.3709C268.983 94.3709 267.89 94.5639 266.667 95.0786C265.702 95.5933 264.737 96.301 263.837 97.2016C263 98.1023 262.421 99.196 261.971 100.225C261.392 101.705 261.263 103.506 261.263 105.244V117.853C261.263 121.199 262.55 122.357 263.965 123H254.379C255.795 122.357 257.081 121.199 257.081 117.853V105.051C257.081 99.8394 255.537 94.3709 249.554 94.3709C248.782 94.3709 247.688 94.5639 246.53 95.0786C245.501 95.5933 244.536 96.301 243.7 97.2016C242.863 98.1023 242.22 99.196 241.834 100.225C241.191 101.898 241.062 103.635 241.126 105.63V117.853C241.126 121.199 242.413 122.357 243.828 123H234.242C235.593 122.357 236.945 121.199 236.945 117.853V105.501C236.945 99.1317 236.752 97.845 235.336 97.2016C237.588 97.2016 240.483 95.2073 241.126 93.5989V98.2953V100.547C241.126 100.418 241.191 100.225 241.255 100.032C241.705 98.9387 242.349 97.7807 243.185 96.7513C244.086 95.7219 245.115 94.9499 246.209 94.4352C247.495 93.7919 248.654 93.5989 249.554 93.5346C249.683 93.5346 249.876 93.5346 250.005 93.5346C250.262 93.5346 250.519 93.4702 250.777 93.4702ZM291.672 96.301C293.988 94.7569 296.497 93.5346 300.55 93.5346C304.153 93.5346 308.335 94.4996 310.329 97.3303C312.066 99.9037 311.938 103.185 310.265 105.63C309.493 106.723 308.463 107.495 307.434 108.01C306.726 108.396 305.89 108.782 305.054 109.104C304.796 109.168 304.475 109.297 304.217 109.425C303.124 109.747 301.966 110.069 300.743 110.39C299.585 110.712 298.427 111.034 297.334 111.355C296.111 111.741 295.146 112.192 294.245 112.642C293.859 112.835 293.473 113.028 293.152 113.285C292.637 113.607 292.187 114.057 291.801 114.443C291.608 114.765 291.415 115.022 291.222 115.28C291.736 116.695 292.38 117.853 293.216 118.883C294.052 119.976 295.146 120.813 296.24 121.456C296.948 121.778 297.591 122.035 298.299 122.164C298.878 122.292 299.457 122.357 299.971 122.421C303.059 122.485 305.568 121.585 307.37 120.362C307.627 120.169 307.884 119.976 308.077 119.783C309.042 119.011 309.75 118.111 310.329 117.081C311.101 115.473 311.037 114.186 311.037 113.993V113.929H311.552V113.993C311.552 114.186 311.616 115.601 310.78 117.274C310.201 118.432 309.429 119.397 308.463 120.234C308.206 120.427 307.949 120.62 307.691 120.813C305.761 122.164 303.188 123 299.971 123.064C299.392 123.129 298.813 123.129 298.17 123.064C297.398 123 296.626 122.871 295.789 122.678C294.438 122.357 292.894 121.778 291.479 120.813C290.128 119.783 288.841 118.497 287.812 116.695C286.847 114.829 286.204 112.642 286.075 110.262C285.882 106.788 286.461 103.892 287.49 101.512C288.584 99.0674 290.192 97.459 291.672 96.301ZM307.627 101.126C307.627 96.4296 303.381 93.2129 298.685 94.3066C296.433 94.8856 294.245 96.494 293.152 97.9093C292.187 99.1317 291.35 100.676 290.771 102.734C290.321 104.665 290.064 107.045 290.257 110.004C290.385 111.806 290.643 113.35 291.093 114.701C291.222 114.572 291.35 114.379 291.479 114.186C291.865 113.671 292.315 113.285 292.83 112.835C293.152 112.578 293.538 112.385 293.924 112.127C294.824 111.548 295.854 111.034 297.012 110.519C298.106 110.069 299.199 109.618 300.357 109.168C301.515 108.718 302.545 108.267 303.51 107.753C303.767 107.624 303.96 107.495 304.217 107.367C304.925 106.916 305.44 106.402 305.89 105.951C306.984 104.793 307.691 103.056 307.627 101.126ZM330.756 93.4702C331.592 93.4702 332.557 93.5346 333.651 93.8562C334.873 94.1779 336.095 94.6926 337.253 95.5933C340.148 97.845 341.242 100.74 341.242 105.244V117.853C341.242 121.199 342.529 122.357 343.944 123.064H337.06V105.051C337.06 99.8394 335.516 94.3709 329.533 94.3709C328.761 94.3709 327.667 94.5639 326.509 95.0786C325.48 95.5933 324.515 96.301 323.679 97.2016C322.842 98.1023 322.199 99.196 321.813 100.225C321.234 101.641 321.105 103.249 321.105 104.922V117.853C321.105 121.199 322.392 122.357 323.807 123H314.221C315.573 122.357 316.924 121.199 316.924 117.853V105.501C316.924 99.1317 316.731 97.845 315.315 97.2016C317.567 97.2016 320.462 95.2073 321.105 93.5989V98.2953V100.547C321.105 100.418 321.17 100.225 321.234 100.032C321.684 98.9387 322.328 97.7807 323.164 96.7513C324.065 95.7219 325.094 94.9499 326.188 94.4352C327.474 93.7919 328.633 93.5989 329.533 93.5346C329.662 93.5346 329.855 93.5346 329.984 93.5346C330.241 93.5346 330.498 93.4702 330.756 93.4702Z" fill="#55423C"/>
<path d="M43.6818 224.906C47.4439 224.906 51.4149 225.115 55.386 225.742C59.3571 226.369 63.1191 227.205 66.6722 228.459C72.1063 230.549 76.7044 233.267 80.4665 237.029C84.6465 241 87.3636 245.598 88.8266 250.405C90.2896 255.212 91.7527 265.871 87.9906 270.469C86.3186 272.35 83.6015 272.977 81.0935 272.141C78.5854 271.514 76.9134 269.215 76.4954 266.707C76.0774 262.736 79.2124 258.974 79.2124 252.286C79.2124 248.733 78.1674 244.971 75.6594 241C73.3603 237.447 69.8073 234.312 65.2092 231.594C61.8651 229.922 58.1031 228.459 54.132 227.623C49.7429 226.787 45.5628 226.578 40.9647 226.578C36.9937 226.787 33.4406 227.414 30.0965 228.459C25.0805 229.922 21.1094 232.43 17.9743 235.357C7.52414 245.807 8.36015 255.63 15.8843 264.408C26.1255 275.694 51.2059 283.636 68.1352 293.042C73.1513 295.759 78.1674 298.894 82.5565 302.447C86.7366 305.791 90.2896 309.971 93.0067 314.569C94.0517 316.868 95.0967 319.376 95.7237 322.093C98.2318 335.678 94.2607 349.055 79.8394 360.759C70.8523 367.447 59.1481 371.209 46.6078 371H46.3988C40.5467 371 34.0676 369.955 27.7975 367.656C21.9454 365.357 16.7203 362.222 12.7492 358.042C8.15115 353.444 5.4341 348.01 4.18008 342.366C2.29904 334.842 3.55306 327.736 4.38908 324.601C4.59808 322.929 5.01609 321.675 5.22509 321.466L6.68812 321.884C6.68812 322.302 6.27011 323.347 5.85211 325.019C5.22509 327.945 3.97107 334.633 5.6431 342.157C6.89712 347.383 9.40517 352.608 13.7942 356.997C17.5563 360.968 22.5724 364.103 28.2155 366.193C34.4856 368.283 40.7557 369.119 46.3988 369.119H46.6078C58.7301 368.701 69.5983 364.521 77.1224 357.624C87.9906 347.801 90.9166 331.916 81.5115 321.048C69.5983 308.299 44.9358 298.894 30.9326 291.161C21.1094 285.726 11.9132 280.292 6.06111 269.842C2.09004 262.736 1.88103 253.54 6.68812 243.508C8.77816 239.537 11.9132 235.775 15.8843 232.849C19.6464 229.922 24.2444 227.832 29.6785 226.578C33.8586 225.533 39.0837 224.906 43.6818 224.906ZM123.177 275.485V334.006C123.177 350.936 128.402 368.701 147.63 368.701C150.138 368.492 153.691 368.074 157.662 366.193C160.797 364.73 163.932 362.431 166.858 359.296C169.576 356.37 171.457 353.026 172.92 349.473C174.592 345.502 175.01 341.739 175.219 339.231V314.151C175.219 293.46 174.592 289.28 169.994 287.189C177.309 287.189 186.923 280.71 188.804 275.485V354.28C188.804 365.148 192.984 368.91 197.582 371.209H175.219V371V355.952V348.428C175.01 349.055 174.801 349.682 174.592 350.1C173.338 353.862 171.248 357.624 168.322 360.759C165.604 364.103 162.26 366.611 158.707 368.492C154.527 370.582 150.556 371.209 147.839 371.209C147.421 371.418 146.794 371.418 146.167 371.418C142.196 371.627 138.434 371.209 134.254 370.164C130.492 369.328 126.521 367.447 122.759 364.73C113.354 357.415 109.591 347.801 109.591 333.17V314.151C109.591 293.46 108.964 289.28 104.575 287.189C111.681 287.189 121.296 280.71 123.177 275.485ZM257.484 275.067C260.202 275.067 263.337 275.276 266.89 276.321C270.861 277.366 274.832 279.038 278.594 281.964C285.073 286.98 288.835 293.042 290.507 301.193C291.134 299.521 291.552 298.058 292.179 296.386C293.433 292.833 295.523 289.071 298.449 285.726C301.166 282.382 304.51 279.874 308.063 278.202C312.243 276.112 316.215 275.485 318.932 275.276C323.53 275.067 327.71 275.067 332.517 276.321C336.279 277.366 340.25 279.038 344.012 281.964C353.417 289.28 357.179 298.685 357.179 313.315V354.28C357.179 365.148 361.359 368.91 365.957 371.209H357.179H343.594V312.688C343.594 295.759 338.369 277.993 319.141 277.993C316.633 277.993 313.079 278.62 309.108 280.292C305.973 281.964 302.838 284.263 299.912 287.189C297.195 290.116 295.314 293.669 293.851 297.013C291.97 301.82 291.552 307.672 291.552 313.315V354.28C291.552 365.148 295.732 368.91 300.33 371H269.189C273.787 368.91 277.967 365.148 277.967 354.28V312.688C277.967 295.759 272.951 277.993 253.513 277.993C251.005 277.993 247.452 278.62 243.69 280.292C240.346 281.964 237.211 284.263 234.494 287.189C231.777 290.116 229.687 293.669 228.433 297.013C226.343 302.447 225.925 308.09 226.134 314.569V354.28C226.134 365.148 230.314 368.91 234.912 371H203.771C208.16 368.91 212.549 365.148 212.549 354.28V314.151C212.549 293.46 211.922 289.28 207.324 287.189C214.639 287.189 224.044 280.71 226.134 275.485V290.743V298.058C226.134 297.64 226.343 297.013 226.552 296.386C228.015 292.833 230.105 289.071 232.822 285.726C235.748 282.382 239.092 279.874 242.645 278.202C246.825 276.112 250.587 275.485 253.513 275.276C253.931 275.276 254.558 275.276 254.976 275.276C255.812 275.276 256.648 275.067 257.484 275.067ZM425.871 275.067C428.588 275.067 431.723 275.276 435.276 276.321C439.248 277.366 443.219 279.038 446.981 281.964C453.46 286.98 457.222 293.042 458.894 301.193C459.521 299.521 459.939 298.058 460.566 296.386C461.82 292.833 463.91 289.071 466.836 285.726C469.553 282.382 472.897 279.874 476.45 278.202C480.63 276.112 484.601 275.485 487.318 275.276C491.916 275.067 496.097 275.067 500.904 276.321C504.666 277.366 508.637 279.038 512.399 281.964C521.804 289.28 525.566 298.685 525.566 313.315V354.28C525.566 365.148 529.746 368.91 534.344 371.209H525.566H511.981V312.688C511.981 295.759 506.756 277.993 487.527 277.993C485.019 277.993 481.466 278.62 477.495 280.292C474.36 281.964 471.225 284.263 468.299 287.189C465.582 290.116 463.701 293.669 462.238 297.013C460.357 301.82 459.939 307.672 459.939 313.315V354.28C459.939 365.148 464.119 368.91 468.717 371H437.576C442.174 368.91 446.354 365.148 446.354 354.28V312.688C446.354 295.759 441.338 277.993 421.9 277.993C419.392 277.993 415.839 278.62 412.077 280.292C408.733 281.964 405.598 284.263 402.881 287.189C400.164 290.116 398.074 293.669 396.82 297.013C394.73 302.447 394.312 308.09 394.521 314.569V354.28C394.521 365.148 398.701 368.91 403.299 371H372.157C376.546 368.91 380.935 365.148 380.935 354.28V314.151C380.935 293.46 380.308 289.28 375.71 287.189C383.026 287.189 392.431 280.71 394.521 275.485V290.743V298.058C394.521 297.64 394.73 297.013 394.939 296.386C396.402 292.833 398.492 289.071 401.209 285.726C404.135 282.382 407.479 279.874 411.032 278.202C415.212 276.112 418.974 275.485 421.9 275.276C422.318 275.276 422.945 275.276 423.363 275.276C424.199 275.276 425.035 275.067 425.871 275.067ZM554.338 253.958C558.937 253.958 562.908 257.929 562.908 262.527C562.908 267.334 558.937 271.096 554.338 271.096C549.531 271.096 545.769 267.334 545.769 262.527C545.769 257.929 549.531 253.958 554.338 253.958ZM562.908 275.485V290.743V354.28C562.908 365.148 567.088 368.91 571.686 371.209H540.544C544.933 368.91 549.322 365.148 549.322 354.28V314.151C549.322 293.46 548.695 289.28 544.097 287.189C551.412 287.189 560.818 280.71 562.908 275.485ZM593.514 231.385V275.276H607.099V276.948H593.514V381.241C593.514 391.9 597.694 395.662 602.292 397.961H596.858C587.87 397.961 579.928 391.482 579.928 375.389V276.948H571.568V275.276H579.928V270.051C579.928 249.151 579.301 245.18 574.703 243.09C582.018 243.09 591.424 236.611 593.514 231.385Z" fill="#E86F14"/>
<path d="M72.4372 99.0775C76.4366 99.0775 80.6582 99.2997 84.8797 99.9663C89.1013 100.633 93.1007 101.522 96.8779 102.855C102.655 105.077 107.543 107.965 111.542 111.964C115.986 116.186 118.874 121.074 120.43 126.184C121.985 131.295 123.54 142.626 119.541 147.514C117.764 149.514 114.875 150.181 112.209 149.292C109.543 148.625 107.765 146.181 107.321 143.515C106.876 139.293 110.209 135.294 110.209 128.184C110.209 124.407 109.098 120.408 106.432 116.186C103.988 112.409 100.211 109.076 95.3226 106.188C91.7676 104.41 87.7682 102.855 83.5466 101.966C78.8807 101.077 74.4369 100.855 69.5488 100.855C65.3272 101.077 61.55 101.744 57.995 102.855C52.6625 104.41 48.441 107.076 45.1081 110.187C33.9988 121.296 34.8875 131.739 42.8863 141.071C53.7735 153.069 80.436 161.512 98.4332 171.511C103.766 174.399 109.098 177.732 113.764 181.509C118.208 185.064 121.985 189.508 124.874 194.396C125.984 196.84 127.095 199.506 127.762 202.395C130.428 216.837 126.207 231.057 110.876 243.5C101.322 250.61 88.8791 254.609 75.5479 254.387H75.3257C69.1044 254.387 62.2166 253.276 55.551 250.832C49.3297 248.388 43.775 245.055 39.5535 240.611C34.6653 235.723 31.7769 229.946 30.4438 223.947C28.4441 215.948 29.7772 208.394 30.6659 205.061C30.8881 203.284 31.3325 201.95 31.5547 201.728L33.11 202.173C33.11 202.617 32.6656 203.728 32.2213 205.505C31.5547 208.616 30.2216 215.726 31.9991 223.725C33.3322 229.28 35.9984 234.834 40.6644 239.5C44.6638 243.722 49.9963 247.055 55.9953 249.276C62.661 251.498 69.3266 252.387 75.3257 252.387H75.5479C88.4347 251.943 99.9885 247.499 107.987 240.167C119.541 229.724 122.652 212.838 112.653 201.284C99.9885 187.73 73.7704 177.732 58.8838 169.511C48.441 163.734 38.6647 157.957 32.4434 146.848C28.2219 139.293 27.9997 129.517 33.11 118.852C35.3319 114.631 38.6647 110.631 42.8863 107.521C46.8856 104.41 51.7738 102.188 57.5507 100.855C61.9944 99.7441 67.5491 99.0775 72.4372 99.0775ZM158.332 105.965V152.625H172.774V154.402H158.332V265.274C158.332 276.605 162.776 280.605 167.664 283.049H161.887C152.333 283.049 143.89 276.161 143.89 259.053V154.402H135.002V152.625H143.89V147.07C143.89 124.851 143.223 120.63 138.335 118.408C146.112 118.408 156.11 111.52 158.332 105.965ZM177.867 187.508C176.09 181.731 178.311 171.955 185.866 163.734C192.754 156.624 201.863 152.847 213.195 152.847C225.193 152.847 239.635 157.513 245.856 170.622C248.301 175.954 249.189 183.064 249.189 190.174V236.612C249.189 248.165 253.633 252.165 258.521 254.609H249.189H234.747V237.723C234.525 238.167 234.303 238.611 234.081 239.278C232.747 242.166 230.526 244.833 227.859 247.277C224.971 249.499 221.86 251.276 218.75 252.609C216.75 253.498 214.75 253.942 213.195 254.387C211.417 254.831 209.862 255.275 208.307 255.498C204.53 256.164 200.752 256.386 197.42 256.164C196.309 256.164 195.42 256.164 194.531 255.942C191.865 255.72 189.199 255.053 186.532 254.165C177.645 250.832 172.757 243.944 172.757 233.945C172.535 229.502 173.645 225.502 175.645 221.503C175.645 221.503 175.645 221.281 175.867 221.281C177.645 217.726 180.533 214.615 184.31 212.171C187.421 210.171 190.976 208.616 194.753 207.061C195.642 206.616 196.531 206.394 197.42 205.95C200.086 205.061 202.308 204.172 205.863 202.839C208.973 201.728 213.195 200.395 216.528 199.062C220.083 197.729 223.193 196.174 225.86 194.618C227.415 193.729 228.526 192.841 229.637 191.952C230.748 191.063 231.636 189.952 232.303 189.064C233.192 187.73 233.636 186.619 234.081 185.509C234.525 184.175 234.525 183.064 234.747 182.398C234.747 179.954 234.525 176.843 234.081 174.621C233.636 171.289 232.525 168.178 230.97 165.289C229.192 162.401 226.971 159.957 224.082 157.957C220.527 155.735 216.75 154.624 213.195 154.624C205.196 154.624 194.531 158.179 191.865 164.845C189.421 171.066 190.532 174.621 191.198 179.287C191.643 182.176 192.309 185.731 190.976 188.397C189.643 190.841 187.199 192.396 184.533 192.396C181.422 192.396 178.534 190.397 177.867 187.508ZM234.747 188.175C234.525 188.619 234.081 189.286 233.636 189.952C232.97 191.063 231.859 192.174 230.526 193.285C229.415 194.174 228.081 195.063 226.748 195.951C223.86 197.729 220.749 199.062 217.194 200.617C213.639 202.173 209.862 203.506 206.529 204.839C203.419 206.172 200.975 207.505 198.753 208.838C197.864 209.283 197.197 209.727 196.531 210.171C193.198 212.393 190.754 214.837 188.976 217.281C186.977 220.17 186.31 222.836 185.644 225.28C185.644 225.28 185.644 225.28 185.644 225.502C184.088 232.835 185.644 239.945 190.976 246.166C192.531 247.499 194.087 248.61 196.086 249.499C196.975 249.721 197.642 250.165 198.53 250.387C201.197 251.276 204.53 251.943 208.085 251.943C209.418 251.943 210.973 251.72 212.528 251.498C214.084 251.276 215.861 250.832 217.861 250.165C220.749 249.276 223.86 247.721 226.526 245.721C229.192 243.5 231.192 241.055 232.525 238.389C235.191 233.057 234.969 225.28 234.747 218.17V188.175ZM288.747 152.847V169.067V183.731C290.08 179.287 292.302 175.066 294.969 171.289C305.189 157.735 318.298 151.736 329.63 153.069C334.518 153.736 339.184 155.291 339.184 160.846C339.184 163.512 337.851 165.734 335.851 167.067C332.518 169.067 328.963 167.734 325.631 166.178C322.964 164.623 321.187 162.845 317.632 161.957C310.522 160.179 305.411 163.068 301.412 166.845C294.302 173.733 288.525 185.286 288.747 198.84V236.612C288.747 248.165 293.191 252.165 298.079 254.387H264.973C269.639 252.165 274.305 248.165 274.305 236.612V193.952C274.305 171.955 273.639 167.511 268.75 165.289C276.527 165.289 286.525 158.402 288.747 152.847ZM369.237 105.965V152.625H383.679V154.402H369.237V265.274C369.237 276.605 373.68 280.605 378.568 283.049H372.792C363.238 283.049 354.794 276.161 354.794 259.053V154.402H345.907V152.625H354.794V147.07C354.794 124.851 354.128 120.63 349.24 118.408C357.016 118.408 367.015 111.52 369.237 105.965ZM401.266 152.847V215.059C401.266 233.057 406.821 251.943 427.262 251.943C429.929 251.72 433.706 251.276 437.927 249.276C441.26 247.721 444.593 245.277 447.704 241.944C450.592 238.834 452.592 235.279 454.147 231.501C455.925 227.28 456.369 223.28 456.591 220.614V193.952C456.591 171.955 455.925 167.511 451.036 165.289C458.813 165.289 469.034 158.402 471.033 152.847V236.612C471.033 248.165 475.477 252.165 480.365 254.609H456.591V254.387V238.389V230.39C456.369 231.057 456.147 231.724 455.925 232.168C454.591 236.167 452.37 240.167 449.259 243.5C446.37 247.055 442.815 249.721 439.038 251.72C434.594 253.942 430.373 254.609 427.484 254.609C427.04 254.831 426.374 254.831 425.707 254.831C421.485 255.053 417.486 254.609 413.042 253.498C409.043 252.609 404.821 250.61 400.822 247.721C390.824 239.945 386.824 229.724 386.824 214.171V193.952C386.824 171.955 386.158 167.511 381.492 165.289C389.046 165.289 399.267 158.402 401.266 152.847ZM544.595 152.847C572.59 152.847 595.476 175.51 595.476 203.728C595.476 231.724 572.59 254.387 544.595 254.387C529.93 254.387 515.933 248.165 506.378 237.056V290.603C506.378 302.157 510.822 306.156 515.71 308.378H482.604C487.27 306.156 491.936 302.157 491.936 290.603V193.952C491.936 171.955 491.27 167.511 486.382 165.289C494.158 165.289 504.157 158.402 506.378 152.847V170.178C515.933 159.29 529.93 152.847 544.595 152.847ZM537.04 156.18C533.485 156.18 530.153 156.846 526.82 157.957C508.156 165.289 500.824 191.73 510.6 216.837C520.598 242.166 543.706 256.609 562.37 249.276C581.034 242.166 588.366 215.726 578.589 190.397C570.591 170.178 553.704 156.18 537.04 156.18Z" fill="#ED9D02"/>
<path d="M106.78 445C106.513 445 106.313 444.947 106.18 444.84C106.073 444.707 106.02 444.493 106.02 444.2V440.88C106.02 439.2 106.353 437.787 107.02 436.64C107.713 435.467 108.58 434.533 109.62 433.84C110.687 433.12 111.993 432.427 113.54 431.76L115.02 431.16C116.407 430.6 117.487 430.093 118.26 429.64C119.033 429.187 119.673 428.56 120.18 427.76C120.713 426.96 120.98 425.92 120.98 424.64C120.98 422.827 120.473 421.4 119.46 420.36C118.473 419.293 117.14 418.76 115.46 418.76C113.753 418.76 112.38 419.133 111.34 419.88C110.3 420.627 109.46 421.8 108.82 423.4C108.74 423.613 108.66 423.76 108.58 423.84C108.5 423.92 108.407 423.96 108.3 423.96C108.247 423.96 108.113 423.933 107.9 423.88L106.58 423.44C106.233 423.333 106.06 423.147 106.06 422.88C106.06 422.693 106.087 422.547 106.14 422.44C106.967 420.307 108.127 418.707 109.62 417.64C111.113 416.573 113.1 416.04 115.58 416.04C117.313 416.04 118.807 416.413 120.06 417.16C121.34 417.88 122.313 418.893 122.98 420.2C123.673 421.48 124.02 422.933 124.02 424.56C124.02 426.4 123.66 427.88 122.94 429C122.247 430.12 121.353 431 120.26 431.64C119.193 432.253 117.593 433.027 115.46 433.96C114.073 434.547 112.953 435.107 112.1 435.64C111.247 436.147 110.54 436.8 109.98 437.6C109.447 438.373 109.18 439.333 109.18 440.48V442.28H123.18C123.473 442.28 123.673 442.333 123.78 442.44C123.887 442.547 123.94 442.747 123.94 443.04V444.2C123.94 444.493 123.887 444.707 123.78 444.84C123.673 444.947 123.473 445 123.18 445H106.78ZM142.08 445C141.787 445 141.587 444.947 141.48 444.84C141.373 444.707 141.32 444.493 141.32 444.2V437.28H128.24C127.973 437.28 127.787 437.227 127.68 437.12C127.573 436.987 127.52 436.773 127.52 436.48V435.64C127.52 435.4 127.533 435.213 127.56 435.08C127.613 434.92 127.707 434.76 127.84 434.6L140.76 416.88C140.947 416.64 141.107 416.48 141.24 416.4C141.4 416.32 141.613 416.28 141.88 416.28H143.28C143.573 416.28 143.773 416.347 143.88 416.48C144.013 416.587 144.08 416.8 144.08 417.12V434.68H147.4C147.693 434.68 147.893 434.747 148 434.88C148.107 434.987 148.16 435.187 148.16 435.48V436.48C148.16 436.773 148.107 436.987 148 437.12C147.893 437.227 147.693 437.28 147.4 437.28H144.08V444.2C144.08 444.493 144.027 444.707 143.92 444.84C143.813 444.947 143.613 445 143.32 445H142.08ZM141.32 434.68V420.32L130.84 434.68H141.32ZM159.59 445C159.164 445 158.95 444.853 158.95 444.56L159.03 444.24L168.91 417.16C168.99 416.893 169.097 416.72 169.23 416.64C169.364 416.533 169.577 416.48 169.87 416.48H171.35C171.617 416.48 171.817 416.533 171.95 416.64C172.084 416.72 172.204 416.88 172.31 417.12L182.15 444.24L182.23 444.56C182.23 444.853 182.017 445 181.59 445H180.23C179.804 445 179.497 444.96 179.31 444.88C179.15 444.773 179.03 444.573 178.95 444.28L176.31 436.76H164.79L162.15 444.28C162.044 444.573 161.91 444.773 161.75 444.88C161.59 444.96 161.297 445 160.87 445H159.59ZM175.43 434.24L171.19 422.08C170.844 420.88 170.657 419.987 170.63 419.4H170.47C170.364 420.227 170.177 421.12 169.91 422.08L165.67 434.24H175.43ZM193.035 445.56C190.608 445.56 188.808 444.893 187.635 443.56C186.462 442.227 185.875 440.293 185.875 437.76V425.16C185.875 424.893 185.915 424.707 185.995 424.6C186.102 424.493 186.275 424.44 186.515 424.44H187.915C188.155 424.44 188.328 424.493 188.435 424.6C188.542 424.707 188.595 424.893 188.595 425.16V437.64C188.595 439.48 188.968 440.853 189.715 441.76C190.488 442.64 191.715 443.08 193.395 443.08C195.235 443.08 196.715 442.8 197.835 442.24C198.102 442.107 198.275 441.96 198.355 441.8C198.435 441.64 198.475 441.413 198.475 441.12V425.16C198.475 424.893 198.515 424.707 198.595 424.6C198.702 424.493 198.875 424.44 199.115 424.44H200.515C200.755 424.44 200.928 424.493 201.035 424.6C201.142 424.707 201.195 424.893 201.195 425.16V442.04C201.195 442.653 201.102 443.12 200.915 443.44C200.728 443.733 200.355 444.013 199.795 444.28C197.848 445.133 195.595 445.56 193.035 445.56ZM214.442 454.88C212.629 454.88 211.149 454.507 210.002 453.76C208.856 453.013 207.949 451.96 207.282 450.6C207.149 450.333 207.082 450.147 207.082 450.04C207.082 449.8 207.229 449.6 207.522 449.44L208.522 448.92C208.789 448.813 208.949 448.76 209.002 448.76C209.216 448.76 209.416 448.92 209.602 449.24C210.082 450.253 210.696 451.027 211.442 451.56C212.189 452.12 213.176 452.4 214.402 452.4C216.162 452.4 217.429 451.893 218.202 450.88C219.002 449.893 219.402 448.413 219.402 446.44V443.92C217.856 444.693 216.042 445.08 213.962 445.08C209.136 445.08 206.722 442.507 206.722 437.36V432.04C206.722 426.573 209.362 423.84 214.642 423.84C215.896 423.84 217.042 423.96 218.082 424.2C219.149 424.413 220.042 424.68 220.762 425C221.322 425.267 221.682 425.56 221.842 425.88C222.029 426.173 222.122 426.653 222.122 427.32V446.32C222.122 452.027 219.562 454.88 214.442 454.88ZM209.442 437.2C209.442 439.013 209.829 440.36 210.602 441.24C211.376 442.12 212.602 442.56 214.282 442.56C216.256 442.56 217.962 442.2 219.402 441.48V428.12C219.402 427.827 219.362 427.627 219.282 427.52C219.202 427.387 219.016 427.24 218.722 427.08C217.549 426.573 216.216 426.32 214.722 426.32C212.882 426.32 211.536 426.787 210.682 427.72C209.856 428.653 209.442 430.12 209.442 432.12V437.2ZM235.379 445.56C232.952 445.56 231.152 444.893 229.979 443.56C228.805 442.227 228.219 440.293 228.219 437.76V425.16C228.219 424.893 228.259 424.707 228.339 424.6C228.445 424.493 228.619 424.44 228.859 424.44H230.259C230.499 424.44 230.672 424.493 230.779 424.6C230.885 424.707 230.939 424.893 230.939 425.16V437.64C230.939 439.48 231.312 440.853 232.059 441.76C232.832 442.64 234.059 443.08 235.739 443.08C237.579 443.08 239.059 442.8 240.179 442.24C240.445 442.107 240.619 441.96 240.699 441.8C240.779 441.64 240.819 441.413 240.819 441.12V425.16C240.819 424.893 240.859 424.707 240.939 424.6C241.045 424.493 241.219 424.44 241.459 424.44H242.859C243.099 424.44 243.272 424.493 243.379 424.6C243.485 424.707 243.539 424.893 243.539 425.16V442.04C243.539 442.653 243.445 443.12 243.259 443.44C243.072 443.733 242.699 444.013 242.139 444.28C240.192 445.133 237.939 445.56 235.379 445.56ZM256.386 445.56C254.359 445.56 252.706 445.173 251.426 444.4C250.146 443.627 249.199 442.373 248.586 440.64C248.533 440.427 248.506 440.293 248.506 440.24C248.506 439.947 248.666 439.747 248.986 439.64L250.266 439.28L250.626 439.2C250.759 439.2 250.866 439.24 250.946 439.32C251.026 439.4 251.106 439.533 251.186 439.72C251.586 440.947 252.213 441.827 253.066 442.36C253.946 442.893 255.053 443.16 256.386 443.16C257.986 443.16 259.186 442.853 259.986 442.24C260.786 441.6 261.186 440.707 261.186 439.56C261.186 438.253 260.799 437.36 260.026 436.88C259.253 436.4 257.986 436.067 256.226 435.88C254.679 435.72 253.399 435.48 252.386 435.16C251.373 434.813 250.546 434.227 249.906 433.4C249.266 432.547 248.946 431.347 248.946 429.8C248.946 427.96 249.573 426.52 250.826 425.48C252.106 424.413 253.893 423.88 256.186 423.88C258.186 423.88 259.759 424.253 260.906 425C262.053 425.72 262.906 426.773 263.466 428.16C263.546 428.347 263.586 428.52 263.586 428.68C263.586 428.947 263.439 429.133 263.146 429.24L262.106 429.64C261.919 429.72 261.773 429.76 261.666 429.76C261.533 429.76 261.359 429.6 261.146 429.28C260.773 428.293 260.199 427.547 259.426 427.04C258.653 426.533 257.573 426.28 256.186 426.28C254.693 426.28 253.559 426.587 252.786 427.2C252.013 427.813 251.626 428.68 251.626 429.8C251.626 430.787 251.826 431.533 252.226 432.04C252.653 432.52 253.199 432.853 253.866 433.04C254.559 433.227 255.546 433.387 256.826 433.52C259.119 433.787 260.866 434.347 262.066 435.2C263.293 436.027 263.906 437.467 263.906 439.52C263.906 441.413 263.266 442.893 261.986 443.96C260.706 445.027 258.839 445.56 256.386 445.56ZM277.842 445C275.975 445.053 274.522 444.88 273.482 444.48C272.442 444.08 271.682 443.333 271.202 442.24C270.722 441.147 270.482 439.52 270.482 437.36V426.96H267.362C267.095 426.96 266.909 426.907 266.802 426.8C266.722 426.693 266.682 426.493 266.682 426.2V425.16C266.682 424.893 266.722 424.707 266.802 424.6C266.909 424.493 267.095 424.44 267.362 424.44H270.482V420.36C270.482 420.093 270.522 419.907 270.602 419.8C270.709 419.693 270.895 419.64 271.162 419.64H272.522C272.789 419.64 272.962 419.693 273.042 419.8C273.149 419.907 273.202 420.093 273.202 420.36V424.44H277.882C278.149 424.44 278.322 424.493 278.402 424.6C278.509 424.707 278.562 424.893 278.562 425.16V426.2C278.562 426.493 278.509 426.693 278.402 426.8C278.322 426.907 278.149 426.96 277.882 426.96H273.202V437.24C273.202 438.733 273.335 439.84 273.602 440.56C273.869 441.28 274.295 441.773 274.882 442.04C275.495 442.28 276.389 442.4 277.562 442.4C277.962 442.4 278.215 442.44 278.322 442.52C278.455 442.6 278.522 442.773 278.522 443.04V444.24C278.522 444.533 278.469 444.733 278.362 444.84C278.282 444.947 278.109 445 277.842 445ZM292.21 445C291.943 445 291.743 444.947 291.61 444.84C291.503 444.707 291.45 444.493 291.45 444.2V440.88C291.45 439.2 291.783 437.787 292.45 436.64C293.143 435.467 294.01 434.533 295.05 433.84C296.116 433.12 297.423 432.427 298.97 431.76L300.45 431.16C301.836 430.6 302.916 430.093 303.69 429.64C304.463 429.187 305.103 428.56 305.61 427.76C306.143 426.96 306.41 425.92 306.41 424.64C306.41 422.827 305.903 421.4 304.89 420.36C303.903 419.293 302.57 418.76 300.89 418.76C299.183 418.76 297.81 419.133 296.77 419.88C295.73 420.627 294.89 421.8 294.25 423.4C294.17 423.613 294.09 423.76 294.01 423.84C293.93 423.92 293.836 423.96 293.73 423.96C293.676 423.96 293.543 423.933 293.33 423.88L292.01 423.44C291.663 423.333 291.49 423.147 291.49 422.88C291.49 422.693 291.516 422.547 291.57 422.44C292.396 420.307 293.556 418.707 295.05 417.64C296.543 416.573 298.53 416.04 301.01 416.04C302.743 416.04 304.236 416.413 305.49 417.16C306.77 417.88 307.743 418.893 308.41 420.2C309.103 421.48 309.45 422.933 309.45 424.56C309.45 426.4 309.09 427.88 308.37 429C307.676 430.12 306.783 431 305.69 431.64C304.623 432.253 303.023 433.027 300.89 433.96C299.503 434.547 298.383 435.107 297.53 435.64C296.676 436.147 295.97 436.8 295.41 437.6C294.876 438.373 294.61 439.333 294.61 440.48V442.28H308.61C308.903 442.28 309.103 442.333 309.21 442.44C309.316 442.547 309.37 442.747 309.37 443.04V444.2C309.37 444.493 309.316 444.707 309.21 444.84C309.103 444.947 308.903 445 308.61 445H292.21ZM324.178 445.56C321.218 445.56 318.911 444.733 317.258 443.08C315.604 441.427 314.778 439.16 314.778 436.28V425.32C314.778 422.467 315.604 420.213 317.258 418.56C318.911 416.88 321.218 416.04 324.178 416.04C327.138 416.04 329.444 416.88 331.098 418.56C332.751 420.213 333.578 422.467 333.578 425.32V436.28C333.578 439.16 332.751 441.427 331.098 443.08C329.444 444.733 327.138 445.56 324.178 445.56ZM317.698 436.28C317.698 438.36 318.258 439.973 319.378 441.12C320.498 442.267 322.098 442.84 324.178 442.84C326.231 442.84 327.818 442.267 328.938 441.12C330.058 439.973 330.618 438.36 330.618 436.28V425.32C330.618 423.24 330.058 421.627 328.938 420.48C327.818 419.333 326.231 418.76 324.178 418.76C322.098 418.76 320.498 419.333 319.378 420.48C318.258 421.627 317.698 423.24 317.698 425.32V436.28ZM339.671 445C339.404 445 339.204 444.947 339.071 444.84C338.964 444.707 338.911 444.493 338.911 444.2V440.88C338.911 439.2 339.244 437.787 339.911 436.64C340.604 435.467 341.471 434.533 342.511 433.84C343.577 433.12 344.884 432.427 346.431 431.76L347.911 431.16C349.297 430.6 350.377 430.093 351.151 429.64C351.924 429.187 352.564 428.56 353.071 427.76C353.604 426.96 353.871 425.92 353.871 424.64C353.871 422.827 353.364 421.4 352.351 420.36C351.364 419.293 350.031 418.76 348.351 418.76C346.644 418.76 345.271 419.133 344.231 419.88C343.191 420.627 342.351 421.8 341.711 423.4C341.631 423.613 341.551 423.76 341.471 423.84C341.391 423.92 341.297 423.96 341.191 423.96C341.137 423.96 341.004 423.933 340.791 423.88L339.471 423.44C339.124 423.333 338.951 423.147 338.951 422.88C338.951 422.693 338.977 422.547 339.031 422.44C339.857 420.307 341.017 418.707 342.511 417.64C344.004 416.573 345.991 416.04 348.471 416.04C350.204 416.04 351.697 416.413 352.951 417.16C354.231 417.88 355.204 418.893 355.871 420.2C356.564 421.48 356.911 422.933 356.911 424.56C356.911 426.4 356.551 427.88 355.831 429C355.137 430.12 354.244 431 353.151 431.64C352.084 432.253 350.484 433.027 348.351 433.96C346.964 434.547 345.844 435.107 344.991 435.64C344.137 436.147 343.431 436.8 342.871 437.6C342.337 438.373 342.071 439.333 342.071 440.48V442.28H356.071C356.364 442.28 356.564 442.333 356.671 442.44C356.777 442.547 356.831 442.747 356.831 443.04V444.2C356.831 444.493 356.777 444.707 356.671 444.84C356.564 444.947 356.364 445 356.071 445H339.671ZM374.971 445C374.677 445 374.477 444.947 374.371 444.84C374.264 444.707 374.211 444.493 374.211 444.2V437.28H361.131C360.864 437.28 360.677 437.227 360.571 437.12C360.464 436.987 360.411 436.773 360.411 436.48V435.64C360.411 435.4 360.424 435.213 360.451 435.08C360.504 434.92 360.597 434.76 360.731 434.6L373.651 416.88C373.837 416.64 373.997 416.48 374.131 416.4C374.291 416.32 374.504 416.28 374.771 416.28H376.171C376.464 416.28 376.664 416.347 376.771 416.48C376.904 416.587 376.971 416.8 376.971 417.12V434.68H380.291C380.584 434.68 380.784 434.747 380.891 434.88C380.997 434.987 381.051 435.187 381.051 435.48V436.48C381.051 436.773 380.997 436.987 380.891 437.12C380.784 437.227 380.584 437.28 380.291 437.28H376.971V444.2C376.971 444.493 376.917 444.707 376.811 444.84C376.704 444.947 376.504 445 376.211 445H374.971ZM374.211 434.68V420.32L363.731 434.68H374.211ZM399.094 416.8V445.24L395.934 445V416.56L399.094 416.8ZM416.649 445C416.382 445 416.196 444.947 416.089 444.84C415.982 444.707 415.929 444.493 415.929 444.2V417.4C415.929 417.107 415.982 416.907 416.089 416.8C416.196 416.667 416.382 416.6 416.649 416.6H418.089C418.382 416.6 418.582 416.667 418.689 416.8C418.796 416.907 418.849 417.107 418.849 417.4V429.24H422.609C422.956 429.24 423.209 429.253 423.369 429.28L431.049 417.28C431.236 416.987 431.409 416.8 431.569 416.72C431.729 416.64 431.996 416.6 432.369 416.6H433.969C434.342 416.6 434.529 416.733 434.529 417C434.529 417.107 434.489 417.24 434.409 417.4L426.169 429.84C427.049 430.133 427.796 430.64 428.409 431.36C429.049 432.08 429.649 433.053 430.209 434.28L434.769 444.2C434.849 444.36 434.889 444.493 434.889 444.6C434.889 444.867 434.702 445 434.329 445H432.809C432.409 445 432.142 444.96 432.009 444.88C431.876 444.8 431.742 444.6 431.609 444.28L427.609 435.36C427.022 434.107 426.396 433.227 425.729 432.72C425.062 432.213 424.102 431.96 422.849 431.96H418.849V444.2C418.849 444.493 418.796 444.707 418.689 444.84C418.582 444.947 418.382 445 418.089 445H416.649ZM445.816 445.56C443.336 445.56 441.389 444.92 439.976 443.64C438.563 442.333 437.856 440.533 437.856 438.24V431.2C437.856 428.907 438.563 427.107 439.976 425.8C441.389 424.493 443.336 423.84 445.816 423.84C448.323 423.84 450.283 424.493 451.696 425.8C453.136 427.107 453.856 428.907 453.856 431.2V438.24C453.856 440.533 453.136 442.333 451.696 443.64C450.283 444.92 448.323 445.56 445.816 445.56ZM440.576 438.24C440.576 439.76 441.043 440.96 441.976 441.84C442.936 442.693 444.216 443.12 445.816 443.12C447.443 443.12 448.736 442.693 449.696 441.84C450.656 440.96 451.136 439.76 451.136 438.24V431.2C451.136 429.68 450.656 428.493 449.696 427.64C448.736 426.76 447.443 426.32 445.816 426.32C444.216 426.32 442.936 426.76 441.976 427.64C441.043 428.493 440.576 429.68 440.576 431.2V438.24ZM466.592 445.56C464.032 445.56 462.085 444.893 460.752 443.56C459.445 442.2 458.792 440.267 458.792 437.76V431.68C458.792 429.2 459.458 427.28 460.792 425.92C462.152 424.533 464.152 423.84 466.792 423.84C470.792 423.84 473.298 425.64 474.312 429.24C474.365 429.453 474.392 429.6 474.392 429.68C474.392 429.973 474.218 430.173 473.872 430.28L472.832 430.64C472.618 430.693 472.485 430.72 472.432 430.72C472.192 430.72 472.005 430.52 471.872 430.12C471.472 428.787 470.872 427.813 470.072 427.2C469.298 426.587 468.178 426.28 466.712 426.28C465.005 426.28 463.712 426.747 462.832 427.68C461.952 428.613 461.512 429.933 461.512 431.64V437.76C461.512 439.467 461.952 440.8 462.832 441.76C463.712 442.693 464.992 443.16 466.672 443.16C468.085 443.16 469.192 442.84 469.992 442.2C470.792 441.56 471.405 440.547 471.832 439.16C471.912 438.947 471.992 438.8 472.072 438.72C472.152 438.64 472.258 438.6 472.392 438.6C472.445 438.6 472.578 438.627 472.792 438.68L473.952 439C474.325 439.133 474.512 439.333 474.512 439.6C474.512 439.733 474.472 439.88 474.392 440.04C473.752 441.933 472.818 443.333 471.592 444.24C470.392 445.12 468.725 445.56 466.592 445.56ZM480.231 445C479.991 445 479.817 444.947 479.711 444.84C479.631 444.733 479.591 444.547 479.591 444.28V416.12C479.591 415.853 479.631 415.667 479.711 415.56C479.817 415.453 479.991 415.4 480.231 415.4H481.631C481.871 415.4 482.044 415.453 482.151 415.56C482.257 415.667 482.311 415.853 482.311 416.12V424.96C482.924 424.64 483.697 424.373 484.631 424.16C485.564 423.947 486.591 423.84 487.711 423.84C492.511 423.84 494.911 426.427 494.911 431.6V444.28C494.911 444.547 494.857 444.733 494.751 444.84C494.644 444.947 494.471 445 494.231 445H492.831C492.591 445 492.417 444.947 492.311 444.84C492.231 444.733 492.191 444.547 492.191 444.28V431.76C492.191 429.947 491.791 428.587 490.991 427.68C490.217 426.773 489.004 426.32 487.351 426.32C485.377 426.32 483.697 426.693 482.311 427.44V444.28C482.311 444.547 482.257 444.733 482.151 444.84C482.044 444.947 481.871 445 481.631 445H480.231ZM501.755 445C501.488 445 501.302 444.947 501.195 444.84C501.088 444.733 501.035 444.547 501.035 444.28V425.16C501.035 424.893 501.088 424.707 501.195 424.6C501.302 424.493 501.488 424.44 501.755 424.44H503.035C503.328 424.44 503.515 424.493 503.595 424.6C503.702 424.68 503.755 424.867 503.755 425.16V444.28C503.755 444.547 503.702 444.733 503.595 444.84C503.488 444.947 503.302 445 503.035 445H501.755ZM500.715 418.08C500.715 417.573 500.795 417.213 500.955 417C501.142 416.787 501.462 416.68 501.915 416.68H502.835C503.288 416.68 503.595 416.787 503.755 417C503.942 417.187 504.035 417.547 504.035 418.08V418.48C504.035 419.04 503.942 419.413 503.755 419.6C503.595 419.787 503.288 419.88 502.835 419.88H501.915C501.462 419.88 501.142 419.787 500.955 419.6C500.795 419.413 500.715 419.04 500.715 418.48V418.08Z" fill="#55423C"/>
</svg>
